<?xml version="1.0" encoding="UTF-8"?>
<svg id="Layer_2" data-name="Layer 2" xmlns="http://www.w3.org/2000/svg" viewBox="0 0 199.17 21.56">
  <defs>
    <style>
      .cls-1 {
        fill: maroon;
      }
    </style>
  </defs>
  <g id="OBJECTS">
    <g>
      <path class="cls-1" d="M51.01,11.45c-25.22,0-45.66-.45-45.66-1s20.44-1,45.66-1,45.66,1,45.66,1c0,0-20.44,1-45.66,1Z"/>
      <path class="cls-1" d="M79.71,3.77c1.92,2.51,3.16,5,2.53,5.83-.62,.82-2.99-.47-5.05-3.16-1.03-1.34-1.58-2.92-1.86-4.14-.28-1.22-.29-2.09-.29-2.09,0,0,.7,.28,1.63,.86,.93,.58,2.08,1.45,3.05,2.7Z"/>
      <path class="cls-1" d="M67.71,13.31c2.58-2.08,5.16-2.73,5.61-1.77,.45,.97-1.27,3.1-3.69,5.06-1.21,.98-2.53,1.52-3.57,1.83-1.03,.31-1.78,.39-1.78,.39,0,0,.2-.84,.73-1.96,.53-1.12,1.41-2.51,2.69-3.55Z"/>
      <path class="cls-1" d="M58.99,4.31c2.19,2.33,3.86,4.56,3.37,5.51-.47,.94-3.18,.06-5.64-2.55-1.22-1.29-1.95-2.91-2.32-4.16-.38-1.26-.43-2.15-.43-2.15,0,0,.73,.28,1.71,.83,.98,.56,2.21,1.35,3.32,2.52Z"/>
      <path class="cls-1" d="M47.08,15.42c3.58-2.73,6.59-4.96,7.26-4.16,.32,.4-.05,1.5-.99,2.91-.94,1.41-2.48,3.1-4.41,4.58-1.93,1.48-3.98,2.22-5.5,2.53-1.52,.32-2.51,.27-2.51,.27,0,0,.67-.87,1.77-2.06,1.1-1.19,2.6-2.71,4.39-4.08Z"/>
      <path class="cls-1" d="M38.52,4.12c2.47,1.75,4.09,3.93,3.61,4.88-.48,.94-2.88,.29-5.36-1.46s-3.61-4.88-3.61-4.88c0,0,2.88-.29,5.36,1.46Z"/>
      <path class="cls-1" d="M25.25,14.47c2.92-2.51,5.54-4.36,6.21-3.57,.66,.76-1.03,4.06-4.2,6.78-1.57,1.36-3.3,2.06-4.59,2.38-1.3,.33-2.17,.31-2.17,.31,0,0,.48-.86,1.3-2.02,.83-1.16,1.99-2.62,3.45-3.88Z"/>
      <path class="cls-1" d="M15.74,4.69c1.18,1.06,2.24,2.04,3.01,2.88,.76,.83,1.21,1.55,1.05,2.08-.16,.51-.95,.71-2.1,.46-1.14-.25-2.64-.99-4.03-2.25-1.4-1.27-2.22-2.97-2.61-4.27-.4-1.31-.42-2.23-.42-2.23,0,0,.73,.35,1.71,.93,.99,.59,2.23,1.36,3.4,2.42Z"/>
      <path class="cls-1" d="M4.65,6.65c1.76,1.12,2.63,2.95,2.09,3.84-.55,.9-2.15,.64-3.7-.33-.78-.49-1.32-1.35-1.69-2.09-.37-.74-.57-1.37-.57-1.37,0,0,.51-.3,1.26-.45,.75-.16,1.74-.15,2.62,.4Z"/>
      <path class="cls-1" d="M1.85,12.66c1.87-2.05,4.02-2.7,4.54-1.8,.53,.91-.56,2.89-2.23,4.72-.84,.92-1.86,1.46-2.69,1.8C.64,17.72,0,17.85,0,17.85c0,0-.02-.76,.21-1.81,.22-1.04,.71-2.37,1.64-3.39Z"/>
      <path class="cls-1" d="M148.16,9.25c25.22,0,45.66,.45,45.66,1s-20.44,1-45.66,1-45.66-1-45.66-1c0,0,20.44-1,45.66-1Z"/>
      <path class="cls-1" d="M121.99,6.23c-2.06,2.69-4.43,3.98-5.05,3.16-.63-.83,.61-3.32,2.53-5.83,.96-1.26,2.12-2.12,3.05-2.7,.93-.58,1.63-.86,1.63-.86,0,0-.01,.87-.29,2.09-.27,1.22-.83,2.8-1.86,4.14Z"/>
      <path class="cls-1" d="M129.53,16.39c-2.42-1.96-4.14-4.08-3.69-5.06,.45-.96,3.03-.31,5.61,1.77,1.28,1.04,2.16,2.43,2.69,3.55,.53,1.12,.73,1.96,.73,1.96,0,0-.74-.08-1.78-.39-1.03-.32-2.35-.85-3.57-1.83Z"/>
      <path class="cls-1" d="M142.45,7.06c-2.46,2.61-5.16,3.48-5.64,2.55-.49-.95,1.18-3.18,3.37-5.51,1.1-1.17,2.33-1.96,3.32-2.52,.98-.55,1.71-.83,1.71-.83,0,0-.06,.89-.43,2.15-.37,1.25-1.1,2.87-2.32,4.16Z"/>
      <path class="cls-1" d="M150.23,18.55c-1.93-1.48-3.47-3.17-4.41-4.58-.94-1.41-1.31-2.52-.99-2.91,.67-.8,3.68,1.43,7.26,4.16,1.79,1.37,3.29,2.89,4.39,4.08,1.1,1.19,1.77,2.06,1.77,2.06,0,0-.99,.05-2.51-.27-1.52-.32-3.56-1.05-5.5-2.53Z"/>
      <path class="cls-1" d="M162.4,7.32c-2.47,1.75-4.87,2.4-5.36,1.46-.48-.94,1.13-3.13,3.61-4.88,2.47-1.75,5.36-1.46,5.36-1.46,0,0-1.13,3.13-3.61,4.88Z"/>
      <path class="cls-1" d="M171.91,17.47c-3.17-2.73-4.86-6.03-4.2-6.78,.68-.78,3.29,1.06,6.21,3.57,1.46,1.26,2.62,2.72,3.45,3.88,.83,1.16,1.3,2.02,1.3,2.02,0,0-.87,.02-2.17-.31-1.29-.32-3.02-1.02-4.59-2.38Z"/>
      <path class="cls-1" d="M185.5,7.64c-1.39,1.26-2.88,2-4.03,2.25-1.15,.25-1.94,.05-2.1-.46-.17-.52,.29-1.24,1.05-2.08,.77-.84,1.83-1.81,3.01-2.88,1.17-1.06,2.41-1.83,3.4-2.42,.98-.58,1.71-.93,1.71-.93,0,0-.02,.92-.42,2.23-.39,1.31-1.21,3.01-2.61,4.27Z"/>
      <path class="cls-1" d="M196.14,9.94c-1.55,.98-3.15,1.23-3.7,.33-.55-.89,.33-2.72,2.09-3.84,.87-.55,1.87-.56,2.62-.4,.75,.15,1.26,.45,1.26,.45,0,0-.2,.63-.57,1.37-.38,.74-.91,1.59-1.69,2.09Z"/>
      <path class="cls-1" d="M195,15.37c-1.67-1.83-2.76-3.8-2.23-4.72,.52-.9,2.67-.25,4.54,1.8,.93,1.02,1.42,2.35,1.64,3.39,.23,1.04,.21,1.81,.21,1.81,0,0-.64-.13-1.47-.47-.83-.35-1.86-.88-2.69-1.8Z"/>
      <ellipse class="cls-1" cx="99.75" cy="9.87" rx="1.99" ry="2.34"/>
    </g>
  </g>
</svg>