<?xml version="1.0" encoding="UTF-8"?>
<svg id="Layer_2" data-name="Layer 2" xmlns="http://www.w3.org/2000/svg" viewBox="0 0 200.1 42.13">
  <defs>
    <style>
      .cls-1 {
        fill: maroon;
      }
    </style>
  </defs>
  <g id="OBJECTS">
    <g>
      <path class="cls-1" d="M100.15,10.12c.35,.39,.7,.79,1.03,1.19,.08,.1,.17,.2,.24,.3l.15,.21c.09,.12,.17,.24,.24,.37,.32,.5,.59,1.02,.81,1.55,.45,1.06,.72,2.17,.84,3.25,.24,2.16-.22,4.13-.86,5.54-.64,1.43-1.44,2.38-2.05,2.91-.62,.54-1.03,.7-1.1,.59-.19-.24,1.15-1.43,2.01-4.07,.42-1.3,.67-2.95,.39-4.72-.13-.88-.39-1.78-.78-2.65-.19-.43-.42-.85-.68-1.25-.06-.1-.13-.2-.2-.3l-.08-.12s0,0,0,0h0s0,0,0,0c0,0,0-.02-.01,.02l-.18,.29c-.27,.4-.47,.84-.69,1.27-.41,.87-.66,1.79-.86,2.68-.36,1.8-.36,3.52-.14,4.93,.22,1.41,.6,2.54,.94,3.26,.15,.38,.32,.64,.41,.84,.1,.19,.15,.29,.15,.29,0,0-.07-.08-.21-.24-.13-.16-.36-.38-.58-.72-.49-.65-1.1-1.71-1.56-3.18-.47-1.47-.72-3.38-.47-5.48,.14-1.04,.37-2.14,.81-3.2,.23-.52,.45-1.07,.77-1.56l.24-.39c.11-.2,.3-.41,.45-.62l.48-.62,.24-.31,.12-.16s.04,0,.06,.02l.07,.07Z"/>
      <path class="cls-1" d="M108.42,18.82c0,.39-.01,.78-.03,1.16,0,.2-.03,.4-.04,.47-.01,.11-.03,.21-.05,.32-.07,.42-.17,.83-.3,1.21-.25,.77-.61,1.47-1.04,2.05-.85,1.18-1.94,1.87-2.88,2.19-.95,.33-1.75,.32-2.29,.23-.54-.09-.81-.25-.79-.34,.02-.22,1.19-.04,2.78-.82,.78-.39,1.64-1.05,2.29-2.06,.33-.5,.6-1.08,.8-1.72,.1-.32,.18-.65,.23-1,.01-.09,.03-.17,.03-.26,.01-.12,.01-.12,.01-.11h0s0,0,0,0c0,0,.01,0-.02,0l-.22,.04c-.31,.04-.6,.14-.9,.22-.58,.19-1.12,.49-1.61,.8-.97,.66-1.74,1.49-2.25,2.31-.52,.81-.84,1.57-1,2.12-.1,.27-.13,.49-.17,.64-.04,.15-.06,.23-.06,.23,0,0,0-.08,0-.24,.01-.15,0-.39,.04-.68,.05-.59,.23-1.45,.66-2.43,.43-.98,1.15-2.04,2.2-2.92,.53-.42,1.13-.82,1.81-1.09,.34-.12,.69-.26,1.06-.31l.29-.05c.14-.03,.33-.03,.49-.04l.51-.03h.26s.13-.02,.13-.02c.05,0,.01,.08,.02,.12Z"/>
      <path class="cls-1" d="M93.01,20.16h0s0-.01,.01,.11c0,.09,.02,.17,.03,.26,.05,.34,.13,.68,.23,1,.19,.64,.47,1.22,.8,1.72,.65,1.01,1.5,1.67,2.29,2.06,1.59,.78,2.76,.59,2.78,.82,.01,.09-.26,.25-.79,.34-.53,.09-1.34,.09-2.29-.23-.94-.32-2.03-1.01-2.88-2.19-.42-.58-.78-1.28-1.04-2.05-.13-.39-.23-.79-.3-1.21-.02-.1-.03-.21-.05-.32,0-.07-.04-.27-.04-.47-.02-.38-.03-.77-.03-1.16,0-.04-.03-.13,.02-.12h.13s.26,.02,.26,.02l.51,.03c.16,.01,.35,0,.49,.04l.29,.05c.37,.06,.72,.19,1.06,.31,.68,.26,1.28,.66,1.81,1.09,1.05,.88,1.78,1.94,2.2,2.92,.43,.98,.61,1.84,.66,2.43,.04,.29,.03,.53,.04,.68,0,.15,0,.24,0,.24,0,0-.02-.08-.06-.23-.04-.15-.07-.37-.17-.64-.16-.55-.47-1.31-1-2.12-.52-.81-1.28-1.65-2.25-2.31-.49-.32-1.02-.61-1.61-.8-.29-.09-.59-.19-.9-.22l-.22-.04s0,0-.02,0h0Z"/>
      <g>
        <path class="cls-1" d="M50.84,11.85c12.45-2.12,23.96-1.15,31.99,.76,2.01,.51,3.83,.91,5.4,1.43,1.58,.5,2.92,1.06,3.97,1.62,2.11,1.14,3.03,2.2,2.97,2.28-.08,.13-1.12-.69-3.23-1.57-1.05-.44-2.38-.87-3.94-1.26-1.56-.41-3.39-.7-5.38-1.12-7.98-1.53-19.28-2.26-31.5-.18-6.11,1.01-11.83,2.67-16.92,4.53-.64,.23-1.27,.46-1.89,.68-.62,.23-1.22,.51-1.81,.75-1.19,.51-2.35,.97-3.46,1.48-2.18,1.09-4.26,2-6.06,3.06-.91,.5-1.78,.98-2.61,1.44-.81,.48-1.56,.97-2.27,1.41-.71,.44-1.37,.85-1.98,1.23-.61,.37-1.13,.78-1.62,1.11-1.94,1.35-3.02,2.1-3.02,2.1,0,0,1.03-.84,2.87-2.36,.47-.37,.97-.82,1.56-1.24,.59-.42,1.23-.88,1.91-1.38,.69-.49,1.42-1.03,2.21-1.57,.81-.51,1.66-1.05,2.55-1.61,1.77-1.18,3.82-2.22,5.99-3.43,1.1-.57,2.26-1.09,3.45-1.65,.6-.27,1.19-.58,1.81-.84,.62-.25,1.26-.5,1.9-.76,5.12-2.06,10.92-3.88,17.14-4.91Z"/>
        <path class="cls-1" d="M74.4,.41c.49,0,.98,0,1.47,.03,.12,0,.25,0,.36,.02l.24,.03c.14,.02,.27,.04,.4,.07,.53,.1,1.05,.26,1.54,.46,.98,.4,1.86,.97,2.6,1.65,1.51,1.35,2.4,3.11,2.82,4.63,.43,1.53,.44,2.84,.34,3.71-.11,.87-.3,1.31-.41,1.3-.28-.02-.07-1.93-1.08-4.5-.51-1.26-1.35-2.64-2.64-3.68-.64-.52-1.38-.96-2.19-1.27-.4-.16-.83-.28-1.26-.35-.11-.02-.22-.04-.33-.05l-.13-.02s0,0,0,0h0s0,0,0,0c0,.01,0-.02,0,.03l.05,.36c.05,.5,.18,.98,.3,1.45,.25,.94,.63,1.8,1.04,2.6,.85,1.57,1.92,2.79,2.95,3.62,1.03,.83,1.99,1.33,2.69,1.58,.34,.15,.62,.2,.81,.27,.19,.06,.29,.09,.29,.09,0,0-.1,0-.3,0-.19-.01-.49,.02-.86-.05-.75-.07-1.84-.35-3.08-1.03-1.24-.68-2.6-1.84-3.72-3.53-.54-.85-1.06-1.82-1.41-2.92-.16-.55-.34-1.12-.42-1.72l-.07-.47c-.04-.23-.04-.54-.06-.8l-.04-.83-.02-.42v-.21s.02-.04,.05-.04h.09Z"/>
        <path class="cls-1" d="M75.93,24.82c-.74,.18-1.46,.32-2.18,.47,.07-.93,.14-1.9,.24-2.75,.06-.48,.14-.96,.23-1.42,.19-.93,.45-1.82,.8-2.62,.34-.81,.77-1.52,1.25-2.12,.48-.59,1-1.05,1.52-1.4,1.03-.69,2.02-.88,2.67-.84,.66,.04,.98,.24,.97,.36,0,.29-1.4,.17-2.97,1.59-.78,.7-1.51,1.74-2,3.14-.25,.69-.44,1.46-.58,2.29-.07,.41-.13,.84-.17,1.28,0,.07,0,.03,0,.04,0,0,0,0,0,0l.55-.15c.2-.06,.41-.13,.61-.19,.4-.13,.79-.28,1.16-.45,.75-.32,1.42-.72,2.02-1.18,1.2-.9,1.99-2.12,2.42-3.29,.44-1.17,.49-2.25,.42-2.98-.04-.37-.09-.66-.15-.84-.05-.19-.08-.29-.08-.29,0,0,.05,.09,.14,.26,.1,.17,.22,.44,.34,.8,.24,.73,.44,1.92,.16,3.35-.14,.71-.38,1.47-.77,2.22-.39,.75-.94,1.48-1.59,2.11-.66,.62-1.43,1.17-2.27,1.6-.42,.22-.85,.41-1.3,.57-.22,.09-.45,.16-.68,.23l-.34,.1-.43,.12Z"/>
        <path class="cls-1" d="M50.29,2.29l-.05-.11s-.04-.08,.01-.07l.21-.03,.43-.06,.85-.1c.28-.03,.56-.07,.85-.08h.4c.08,0,.16,0,.24,0,.63,.02,1.24,.11,1.84,.23,1.19,.26,2.28,.7,3.27,1.23,1.98,1.07,3.49,2.47,4.65,3.72,1.16,1.26,1.98,2.38,2.51,3.18,.53,.8,.77,1.3,.68,1.39-.19,.21-1.61-1.34-4.01-3.51-1.21-1.06-2.7-2.25-4.51-3.11-.9-.43-1.88-.79-2.91-.98-.51-.1-1.04-.16-1.58-.17-.07,0-.13,0-.2,0-.05,0-.06,0-.05,0h0s0,0,0,0h0s0,0,0,0c0,0,0,0,.01,.03l.21,.39c.13,.27,.3,.51,.46,.76,.16,.25,.31,.5,.49,.72,.66,.94,1.42,1.73,2.18,2.44,1.54,1.39,3.17,2.32,4.61,2.85,1.44,.54,2.69,.76,3.56,.81,.43,.06,.77,.02,1,.04,.23,0,.35,0,.35,0,0,0-.12,.03-.35,.08-.23,.04-.56,.15-1.01,.19-.88,.13-2.19,.17-3.78-.16-1.59-.32-3.46-1.07-5.26-2.46-.89-.7-1.8-1.52-2.58-2.55-.21-.24-.39-.52-.58-.79-.19-.27-.38-.54-.54-.85l-.25-.45c-.15-.25-.29-.54-.41-.83-.25-.58-.51-1.16-.76-1.74Z"/>
        <path class="cls-1" d="M57.5,28.93c-.16,.1-.32,.2-.48,.29-.06-.61-.13-1.22-.19-1.82-.06-.58-.12-1.33-.12-1.51-.04-.63-.05-1.25-.04-1.86,.02-1.23,.13-2.42,.34-3.54,.41-2.24,1.29-4.15,2.28-5.46,.99-1.33,2.05-2.11,2.83-2.48,.78-.37,1.26-.39,1.29-.28,.12,.29-1.62,1.02-3.14,3.59-.76,1.27-1.4,2.96-1.68,4.97-.15,1-.22,2.08-.21,3.2,0,.56,.02,1.14,.07,1.72,.03,.42,.02,.28,.02,.3h0s0,0,0,0c.05-.04-.19,.15,.41-.3,.4-.34,.8-.67,1.15-1.06,.73-.74,1.34-1.58,1.84-2.43,1.03-1.71,1.63-3.51,1.93-5.07,.3-1.57,.33-2.9,.26-3.82,0-.46-.08-.81-.1-1.06-.03-.24-.04-.37-.04-.37,0,0,.04,.12,.11,.35,.06,.23,.21,.57,.3,1.03,.23,.91,.43,2.28,.34,4.01-.09,1.72-.52,3.78-1.54,5.81-.5,1.01-1.13,2.02-1.94,2.92-.38,.47-.84,.87-1.3,1.29l-.36,.28-.25,.19c-.11,.09-.22,.17-.34,.24-.48,.29-.96,.58-1.44,.88Z"/>
        <path class="cls-1" d="M28.8,7.47c.55-.09,1.09-.18,1.63-.27l.79-.12,.56-.08c.55-.07,1.1-.12,1.64-.15,1.08-.06,2.15-.03,3.16,.11,2.02,.26,3.81,1.03,5.1,2.01,1.3,.97,2.13,2.09,2.55,2.94,.42,.85,.5,1.4,.4,1.45-.24,.17-1.1-1.74-3.57-3.17-1.22-.72-2.8-1.26-4.63-1.4-.91-.08-1.88-.07-2.9,.01-.51,.04-1.02,.1-1.55,.17l-.25,.03h-.02s0,0,0,0h0s0,0,0,0c0,0-.01-.01,.04,.06,.15,.22,.32,.43,.5,.62,.18,.19,.33,.41,.52,.58,.71,.75,1.51,1.33,2.29,1.85,1.58,.99,3.2,1.52,4.59,1.71,1.39,.2,2.56,.12,3.35-.03,.4-.05,.7-.16,.91-.2,.21-.05,.32-.08,.32-.08,0,0-.1,.05-.3,.16-.2,.09-.48,.28-.87,.42-.77,.33-1.95,.67-3.46,.72-1.5,.05-3.33-.26-5.2-1.2-.92-.48-1.87-1.08-2.72-1.9-.23-.19-.42-.42-.63-.64-.21-.22-.42-.45-.6-.7l-.22-.29c-.08-.12-.18-.23-.26-.35l-.46-.73c-.31-.49-.62-.99-.93-1.49,.07-.01,.15-.02,.22-.04Z"/>
        <path class="cls-1" d="M37.87,27.78h0s0,0,0,0l.28-.21c.38-.33,.78-.65,1.11-1.02,.71-.71,1.3-1.5,1.81-2.31,1.02-1.61,1.65-3.29,2.02-4.75,.74-2.94,.49-4.94,.78-4.98,.11-.02,.3,.45,.46,1.36,.15,.91,.21,2.27-.03,3.92-.24,1.65-.81,3.59-1.89,5.47-.53,.94-1.18,1.87-1.97,2.71-.38,.44-.82,.82-1.26,1.2l-.37,.29c-.22,.17-.44,.34-.66,.47-.45,.29-.91,.57-1.37,.86-.64,.68-.45-.41-.54-.89-.03-.59-.09-1.16-.1-1.74v-.64c0-.16,0-.31,.01-.46,.02-.31,.04-.61,.06-.91,.12-1.2,.35-2.34,.65-3.4,.62-2.1,1.5-3.83,2.4-5.12,.9-1.29,1.76-2.19,2.4-2.73,.31-.29,.58-.47,.74-.61,.17-.13,.26-.2,.26-.2,0,0-.07,.09-.21,.27-.14,.18-.36,.41-.6,.77-.51,.67-1.19,1.7-1.86,3.06-.68,1.35-1.29,3.07-1.71,5.02-.19,.98-.34,2.02-.4,3.11,0,.27-.02,.54-.02,.82,0,.14,0,.28,0,.41v.21c0,.08,0,.02,0,.04,0,0,0,0,0,0Z"/>
        <path class="cls-1" d="M10.76,17.03l-.47-.71s-.03-.03-.02-.04h.05s.09-.04,.09-.04l.19-.06,.38-.12c.5-.15,.99-.3,1.48-.45,.62-.13,.75-.16,1.05-.21,.27-.03,.54-.06,.81-.09,1.08-.08,2.12-.01,3.09,.17,1.94,.39,3.59,1.17,4.83,2.07,1.24,.9,2.1,1.84,2.59,2.58,.5,.73,.68,1.2,.59,1.28-.22,.22-1.37-1.3-3.79-2.64-1.2-.68-2.73-1.23-4.46-1.49-.87-.11-1.78-.13-2.72-.04-.23,.03-.47,.06-.71,.1-.2,.04-.58,.13-.48,.1h0s0,0,0,0h0s.12,.16,.12,.16l.24,.31c.35,.38,.68,.77,1.05,1.1,.72,.69,1.49,1.27,2.26,1.73,1.54,.96,3.1,1.47,4.44,1.72,1.34,.24,2.47,.23,3.25,.15,.39-.02,.69-.1,.9-.12,.21-.03,.32-.05,.32-.05,0,0-.1,.05-.3,.13-.2,.07-.48,.23-.86,.34-.76,.27-1.91,.53-3.37,.53-1.45,0-3.21-.3-5.01-1.2-.9-.43-1.81-1.01-2.66-1.75-.44-.36-.84-.79-1.25-1.22-.23-.28-.46-.57-.69-.86-.31-.47-.63-.93-.95-1.4Z"/>
        <path class="cls-1" d="M20.64,34.93h0s0,0,0,0h0s.21-.23,.21-.23c.15-.17,.31-.33,.45-.5,.59-.68,1.08-1.4,1.53-2.11,.89-1.44,1.51-2.87,1.92-4.12,.84-2.51,.97-4.23,1.24-4.22,.2-.01,.52,1.79-.07,4.63-.29,1.41-.85,3.06-1.75,4.71-.46,.82-.98,1.66-1.62,2.44-.15,.2-.33,.39-.49,.58l-.28,.31-.51,.48c-.68,.66-1.4,1.28-2.12,1.92-.02-.28-.04-.56-.06-.85-.08-1.06-.16-2.23-.2-3.07-.02-.54-.04-1.08-.04-1.61,0-1.06,.06-2.1,.18-3.08,.25-1.97,.84-3.7,1.56-4.96,.71-1.28,1.53-2.09,2.13-2.55,.3-.23,.54-.39,.71-.48,.17-.09,.26-.14,.26-.14,0,0-.08,.07-.22,.21-.14,.14-.34,.35-.58,.64-.47,.58-1.07,1.51-1.53,2.78-.47,1.27-.79,2.86-.86,4.67-.04,.91-.03,1.86,.02,2.86,.03,.5,.06,1.02,.09,1.54,.02,.23,.02,.13,.02,.15Z"/>
        <path class="cls-1" d="M.1,41.72c.14-.58,.28-1.17,.42-1.74,.13-.49,.25-.98,.37-1.46,.16-.58,.32-1.15,.51-1.71,.37-1.12,.8-2.19,1.34-3.15,.53-.96,1.16-1.81,1.85-2.48,.7-.66,1.44-1.14,2.15-1.45,1.44-.64,2.75-.6,3.56-.31,.82,.28,1.16,.67,1.12,.78-.06,.14-.49,0-1.22-.01-.73-.03-1.8,.14-2.94,.83-.57,.34-1.15,.81-1.69,1.4-.53,.59-1.02,1.33-1.44,2.2-.43,.86-.79,1.82-1.11,2.87-.16,.52-.31,1.07-.45,1.62l-.05,.21c-.02,.09,0,.03-.01,.05h0s0,0,0,0h0s-.02,.01,.01,0c.49-.15,.96-.32,1.41-.49,.91-.35,1.77-.74,2.54-1.21,1.55-.91,2.73-2.1,3.52-3.32,.79-1.21,1.18-2.4,1.34-3.25,.09-.42,.12-.76,.13-1,.02-.23,.02-.36,.02-.36,0,0,.02,.12,.05,.35,.03,.23,.07,.58,.06,1.03,0,.9-.19,2.25-.87,3.73-.66,1.48-1.86,3.06-3.51,4.24-.82,.6-1.73,1.12-2.71,1.55-.49,.22-.99,.41-1.5,.59-.97,.32-1.98,.6-3,.89,.03-.13,.06-.27,.1-.4Z"/>
      </g>
      <g>
        <path class="cls-1" d="M148.99,13.4c-12.23-2.08-23.52-1.35-31.5,.18-1.99,.42-3.82,.71-5.38,1.12-1.57,.39-2.89,.82-3.94,1.26-2.11,.88-3.15,1.7-3.23,1.57-.06-.08,.86-1.15,2.97-2.28,1.05-.56,2.39-1.12,3.97-1.62,1.57-.52,3.39-.92,5.4-1.43,8.03-1.91,19.54-2.88,31.98-.76,6.22,1.03,12.02,2.84,17.14,4.91,.64,.26,1.27,.51,1.9,.76,.62,.26,1.22,.56,1.81,.84,1.19,.57,2.35,1.09,3.45,1.65,2.17,1.21,4.22,2.24,5.99,3.43,.89,.57,1.75,1.1,2.55,1.61,.79,.54,1.52,1.08,2.21,1.57,.69,.49,1.32,.95,1.91,1.38,.59,.42,1.09,.87,1.56,1.24,1.85,1.52,2.87,2.36,2.87,2.36,0,0-1.08-.75-3.02-2.1-.49-.33-1.01-.74-1.62-1.11-.61-.38-1.27-.79-1.98-1.23-.71-.44-1.46-.92-2.27-1.41-.82-.45-1.7-.93-2.61-1.44-1.8-1.06-3.88-1.98-6.06-3.06-1.1-.51-2.27-.97-3.46-1.48-.6-.25-1.19-.52-1.81-.75-.62-.22-1.25-.45-1.89-.68-5.09-1.86-10.81-3.52-16.92-4.53Z"/>
        <path class="cls-1" d="M123.98,2.04h0s0,0,0,0l-.13,.02c-.11,.01-.22,.03-.33,.05-.43,.08-.86,.2-1.26,.35-.81,.3-1.55,.74-2.19,1.27-1.29,1.04-2.13,2.41-2.64,3.68-1.01,2.57-.8,4.48-1.08,4.5-.11,.02-.31-.42-.41-1.3-.1-.86-.09-2.18,.34-3.71,.42-1.52,1.31-3.28,2.82-4.63,.74-.68,1.62-1.25,2.6-1.65,.49-.2,1-.36,1.54-.46,.13-.03,.27-.05,.4-.07l.24-.03c.11-.02,.24-.02,.36-.02,.48-.02,.97-.03,1.47-.03h.09s.07-.01,.06,.04V.25s-.03,.42-.03,.42l-.04,.83c-.02,.26-.02,.57-.06,.8l-.07,.47c-.08,.6-.25,1.17-.42,1.72-.35,1.1-.86,2.07-1.41,2.92-1.13,1.69-2.48,2.85-3.72,3.53-1.24,.68-2.33,.96-3.08,1.03-.37,.07-.67,.03-.86,.05-.19,0-.3,0-.3,0,0,0,.1-.03,.29-.09,.19-.07,.47-.11,.81-.27,.69-.25,1.66-.75,2.69-1.58,1.03-.82,2.1-2.05,2.95-3.62,.41-.79,.79-1.65,1.04-2.6,.11-.47,.25-.95,.3-1.45l.05-.36s0-.01,0-.03h0Z"/>
        <path class="cls-1" d="M124.39,22.43s0,0,0,0c0-.01,.01,.03,0-.04-.05-.44-.1-.87-.17-1.28-.14-.83-.33-1.6-.58-2.29-.49-1.4-1.22-2.44-2-3.14-1.56-1.42-2.96-1.3-2.97-1.59-.01-.12,.31-.32,.97-.36,.65-.04,1.64,.15,2.67,.84,.51,.34,1.04,.81,1.52,1.4,.48,.6,.91,1.32,1.25,2.12,.35,.8,.61,1.69,.8,2.62,.1,.46,.17,.94,.23,1.42,.1,.85,.17,1.81,.24,2.75-.72-.15-1.44-.29-2.18-.47l-.43-.11-.34-.1c-.23-.08-.45-.15-.68-.23-.45-.16-.88-.35-1.3-.57-.84-.43-1.61-.97-2.27-1.6-.65-.63-1.2-1.36-1.59-2.11-.39-.75-.63-1.51-.77-2.22-.28-1.43-.09-2.62,.16-3.35,.12-.37,.24-.64,.34-.8,.09-.17,.14-.26,.14-.26,0,0-.03,.1-.08,.29-.05,.19-.11,.48-.15,.84-.08,.73-.03,1.81,.42,2.98,.43,1.17,1.23,2.39,2.42,3.29,.6,.45,1.28,.85,2.02,1.18,.37,.16,.76,.31,1.16,.45,.2,.06,.41,.13,.61,.19l.55,.15Z"/>
        <path class="cls-1" d="M147.15,3.41h0s0,0,0,0h0s0,0-.05,0c-.07,0-.13,0-.2,0-.53,0-1.06,.08-1.58,.17-1.03,.2-2.01,.55-2.91,.98-1.81,.86-3.3,2.05-4.51,3.11-2.4,2.17-3.81,3.72-4.01,3.51-.09-.09,.15-.59,.68-1.39,.53-.8,1.36-1.92,2.51-3.18,1.16-1.24,2.67-2.65,4.65-3.72,.98-.53,2.08-.97,3.27-1.23,.59-.13,1.21-.22,1.84-.23,.08,0,.16,0,.24,0h.4c.29,.01,.57,.05,.85,.08l.85,.1,.43,.06,.21,.03c.06,0,.03,.04,.01,.07l-.05,.11c-.26,.59-.51,1.17-.76,1.74-.12,.29-.26,.58-.41,.83l-.25,.45c-.16,.3-.35,.57-.54,.85-.19,.27-.37,.55-.58,.79-.78,1.03-1.68,1.85-2.58,2.55-1.81,1.39-3.67,2.14-5.27,2.46-1.59,.33-2.9,.29-3.78,.16-.44-.04-.78-.15-1.01-.19-.23-.05-.35-.08-.35-.08,0,0,.12,0,.35,0,.23-.02,.57,.02,1-.04,.87-.05,2.11-.27,3.56-.81,1.44-.53,3.07-1.46,4.61-2.85,.76-.7,1.52-1.49,2.18-2.44,.18-.22,.33-.47,.49-.72,.16-.25,.32-.49,.46-.76l.21-.39s.01-.02,.01-.02h0Z"/>
        <path class="cls-1" d="M141.63,25.64h0s0,0,0,0c0-.02,0,.12,.02-.3,.04-.58,.06-1.16,.07-1.72,0-1.12-.06-2.2-.21-3.2-.28-2.01-.92-3.7-1.68-4.97-1.52-2.57-3.26-3.3-3.14-3.59,.04-.12,.51-.09,1.29,.28,.78,.37,1.84,1.14,2.83,2.48,.99,1.31,1.87,3.22,2.28,5.46,.21,1.12,.32,2.31,.34,3.54,0,.61,0,1.24-.04,1.86,0,.18-.06,.94-.12,1.51-.06,.6-.13,1.21-.19,1.82-.16-.1-.32-.19-.48-.29-.48-.29-.96-.59-1.44-.88-.12-.07-.23-.15-.34-.24l-.25-.19-.36-.28c-.46-.41-.92-.81-1.3-1.29-.81-.9-1.44-1.91-1.94-2.92-1.01-2.03-1.44-4.1-1.54-5.81-.09-1.72,.11-3.1,.34-4.01,.09-.46,.23-.79,.3-1.03,.07-.23,.11-.35,.11-.35,0,0-.01,.13-.04,.37-.02,.25-.09,.6-.1,1.06-.07,.92-.04,2.25,.26,3.82,.3,1.56,.89,3.36,1.93,5.07,.51,.86,1.12,1.69,1.84,2.43,.35,.39,.75,.72,1.15,1.06,.61,.45,.36,.26,.41,.3Z"/>
        <path class="cls-1" d="M168.39,8.59h0s-.02,0-.02,0l-.25-.03c-.53-.07-1.04-.13-1.55-.17-1.01-.08-1.98-.09-2.9-.01-1.83,.14-3.41,.68-4.63,1.4-2.48,1.43-3.33,3.34-3.57,3.17-.1-.05-.02-.6,.4-1.45,.42-.85,1.24-1.97,2.55-2.94,1.29-.97,3.08-1.75,5.1-2.01,1.01-.14,2.07-.17,3.16-.11,.54,.03,1.09,.08,1.64,.15l.56,.08,.79,.12c.54,.09,1.08,.18,1.63,.27,.07,.01,.15,.03,.22,.04-.31,.5-.62,1-.93,1.49l-.46,.73c-.07,.12-.17,.23-.26,.35l-.22,.29c-.19,.26-.39,.49-.6,.7-.21,.22-.41,.45-.63,.64-.86,.83-1.81,1.42-2.72,1.9-1.86,.94-3.69,1.25-5.2,1.2-1.51-.05-2.69-.38-3.46-.72-.39-.14-.67-.33-.87-.42-.19-.1-.3-.16-.3-.16,0,0,.11,.03,.32,.08,.21,.04,.51,.15,.91,.2,.79,.15,1.96,.22,3.35,.03,1.39-.19,3-.72,4.59-1.71,.78-.51,1.58-1.09,2.29-1.85,.19-.17,.35-.38,.52-.58,.18-.19,.35-.4,.5-.62,.06-.08,.04-.06,.04-.06h0s0,0,0,0h0Z"/>
        <path class="cls-1" d="M163.33,30.38c-.46-.29-.91-.58-1.37-.86-.22-.13-.44-.3-.66-.47l-.37-.29c-.44-.39-.89-.77-1.26-1.2-.79-.84-1.44-1.77-1.97-2.71-1.08-1.88-1.65-3.82-1.89-5.47-.24-1.65-.18-3.02-.03-3.92,.16-.91,.35-1.38,.46-1.36,.29,.04,.04,2.03,.78,4.98,.36,1.46,.99,3.14,2.02,4.75,.5,.81,1.1,1.6,1.81,2.31,.34,.37,.73,.69,1.11,1.02l.28,.21h0s0,0,0,0c0,0,0,0,0,0,0-.02,0,.04,0-.04v-.21c.01-.14,.01-.28,0-.41,0-.28-.02-.55-.02-.82-.07-1.08-.21-2.12-.4-3.11-.41-1.96-1.03-3.67-1.71-5.02-.67-1.36-1.35-2.39-1.86-3.06-.24-.35-.47-.59-.6-.77-.14-.17-.21-.27-.21-.27,0,0,.09,.07,.26,.2,.17,.14,.44,.32,.74,.61,.64,.54,1.5,1.44,2.4,2.73,.9,1.29,1.78,3.02,2.4,5.12,.29,1.05,.53,2.19,.65,3.4,.02,.3,.04,.61,.06,.91,.01,.15,.02,.31,.02,.46v.64c0,.59-.06,1.15-.1,1.74-.09,.48,.11,1.57-.54,.89Z"/>
        <path class="cls-1" d="M186.82,17.04h0c.1,.02-.27-.07-.48-.11-.24-.03-.47-.06-.71-.1-.94-.09-1.85-.07-2.72,.04-1.73,.25-3.26,.81-4.46,1.49-2.42,1.34-3.58,2.86-3.79,2.64-.09-.08,.09-.56,.59-1.28,.49-.74,1.35-1.68,2.59-2.58,1.24-.91,2.89-1.68,4.83-2.07,.97-.18,2.01-.24,3.09-.17,.27,.03,.54,.06,.81,.09,.3,.05,.43,.08,1.05,.21,.49,.15,.99,.3,1.48,.45l.38,.12,.19,.06,.09,.03h.05s-.01,.04-.02,.06l-.47,.71c-.32,.47-.63,.94-.95,1.4-.23,.29-.46,.57-.69,.86-.41,.43-.81,.86-1.25,1.22-.86,.74-1.76,1.33-2.66,1.75-1.8,.89-3.56,1.19-5.01,1.2-1.46,0-2.61-.27-3.37-.53-.38-.11-.67-.27-.86-.34-.19-.08-.3-.13-.3-.13,0,0,.11,.02,.32,.05,.21,.02,.5,.1,.9,.12,.77,.08,1.9,.09,3.25-.15,1.34-.24,2.9-.76,4.44-1.72,.78-.46,1.54-1.05,2.26-1.73,.37-.33,.7-.72,1.05-1.1l.24-.31,.12-.15h0s0,0,0,0Z"/>
        <path class="cls-1" d="M181,37.56c-.02,.29-.04,.57-.06,.85-.72-.64-1.45-1.26-2.12-1.92l-.51-.48-.28-.31c-.17-.2-.34-.38-.49-.58-.64-.78-1.16-1.62-1.62-2.44-.9-1.66-1.46-3.3-1.75-4.71-.59-2.85-.27-4.64-.07-4.63,.27-.01,.4,1.71,1.24,4.22,.42,1.25,1.04,2.69,1.92,4.12,.45,.71,.95,1.44,1.53,2.11,.14,.18,.3,.33,.45,.5l.21,.23h0s0,0,0,0h0s0,.08,.02-.15c.03-.52,.06-1.03,.09-1.54,.05-1,.06-1.96,.02-2.86-.07-1.81-.39-3.4-.86-4.67-.46-1.27-1.06-2.2-1.53-2.78-.23-.29-.43-.51-.58-.64-.14-.14-.22-.21-.22-.21,0,0,.09,.05,.26,.14,.17,.09,.42,.25,.71,.48,.6,.46,1.41,1.28,2.13,2.55,.72,1.26,1.31,2.99,1.56,4.96,.13,.98,.18,2.02,.18,3.08,0,.53-.01,1.07-.04,1.61-.04,.83-.12,2.01-.2,3.07Z"/>
        <path class="cls-1" d="M197.59,38.93h0s0,0,0,0c0-.02,.01,.04-.01-.05l-.05-.21c-.15-.56-.29-1.1-.45-1.62-.32-1.05-.68-2.01-1.11-2.87-.42-.86-.91-1.6-1.44-2.19-.54-.59-1.12-1.06-1.69-1.4-1.14-.68-2.21-.86-2.94-.83-.74,.02-1.17,.15-1.22,.01-.05-.1,.29-.49,1.12-.78,.81-.29,2.13-.33,3.56,.31,.72,.32,1.45,.8,2.15,1.45,.7,.67,1.33,1.52,1.85,2.48,.53,.96,.97,2.03,1.34,3.15,.19,.56,.35,1.13,.51,1.71,.12,.48,.25,.97,.37,1.46,.14,.58,.28,1.16,.42,1.74,.03,.14,.07,.27,.1,.4-1.02-.29-2.03-.57-3-.89-.51-.18-1.01-.38-1.5-.59-.97-.43-1.89-.95-2.71-1.55-1.65-1.18-2.85-2.77-3.51-4.24-.68-1.48-.87-2.83-.87-3.73,0-.45,.03-.8,.06-1.03,.03-.23,.05-.35,.05-.35,0,0,0,.12,.02,.36,.01,.23,.05,.57,.13,1,.16,.85,.55,2.04,1.34,3.25,.78,1.22,1.97,2.42,3.52,3.32,.77,.46,1.62,.86,2.54,1.21,.46,.17,.93,.34,1.41,.49,.03,0,.01,0,.01,0h0Z"/>
      </g>
    </g>
  </g>
</svg>