<?xml version="1.0" encoding="UTF-8"?>
<svg id="Layer_2" data-name="Layer 2" xmlns="http://www.w3.org/2000/svg" viewBox="0 0 199.7 18.04">
  <defs>
    <style>
      .cls-1 {
        fill: #d4af37;
      }
    </style>
  </defs>
  <g id="OBJECTS">
    <g>
      <path class="cls-1" d="M64.76,7.16c-2.67,.07-6.66,.4-11.81,.94-5.14,.55-11.4,1.35-18.62,2.6-2.19,.38-4.39,.8-6.63,1.25-2.24,.44-4.57,.85-6.94,.88-2.36,.04-4.79-.37-6.93-1.42-1.07-.52-2.06-1.22-2.86-2.12-.38-.48-.74-.91-.99-1.56-.22-.62-.23-1.27-.12-1.87,.12-.61,.37-1.19,.79-1.67,.4-.48,1.06-.83,1.72-.8,.64,.03,1.25,.27,1.68,.79,.44,.53,.42,1.24,.29,1.78-.29,1.11-.98,1.99-1.78,2.66-.82,.63-1.66,1.16-2.51,1.64-3.42,1.93-6.95,2.87-10.06,3.23,3.07-.42,6.59-1.46,9.93-3.52,.83-.51,1.66-1.09,2.42-1.73,.71-.66,1.31-1.56,1.47-2.51,.09-.48-.03-.95-.34-1.24-.3-.29-.83-.45-1.25-.39-.88,.12-1.48,1.14-1.53,2.1-.03,.49,.06,.98,.28,1.38,.24,.41,.59,.84,.97,1.19,.76,.72,1.72,1.26,2.73,1.65,2.05,.79,4.3,.95,6.53,.72,2.24-.22,4.46-.81,6.7-1.42,2.25-.62,4.51-1.22,6.74-1.77,6.21-1.55,11.76-2.61,16.51-3.36,4.75-.74,8.67-1.22,11.73-1.43,1.8-.13,3.69-.2,5.64-.15,3.86,.12,7.59,.76,10.84,2.04,3.23,1.29,5.85,3.13,7.63,5.11,1.81,1.96,2.72,4.03,3.01,5.49,.28,1.48,.06,2.32-.19,2.37-.31,.07-.63-.62-1.28-1.7-.65-1.08-1.74-2.51-3.44-3.92-1.7-1.4-4.03-2.75-6.83-3.68-2.78-.93-6.1-1.43-9.62-1.55-1.32-.05-2.62-.05-3.91-.02Z"/>
      <path class="cls-1" d="M101.35,4.69c-.03,.84-.18,2.48-.74,4.72-.68,2.72-1.14,5.72-1.27,7.63-.12-1.89-.63-4.97-1.34-7.77-.49-1.94-.67-3.42-.73-4.33-.03-.27-.04-.55-.04-.83C97.23,1.85,98.16,.01,99.3,0s2.07,1.81,2.08,4.07c0,.21-.01,.42-.03,.62Z"/>
      <path class="cls-1" d="M93.88,6.87c.34,.64,.94,1.92,1.45,3.87,.62,2.36,1.55,4.82,2.28,6.29-.94-1.34-2.74-3.35-4.58-5.05-1.28-1.18-2.08-2.19-2.54-2.83-.14-.18-.28-.38-.41-.59-1-1.67-1.02-3.5-.04-4.1,.98-.6,2.58,.27,3.58,1.94,.09,.16,.18,.31,.25,.47Z"/>
      <path class="cls-1" d="M57.65,10.52c.97-.35,2.41-.84,4.34-1.23,1.93-.37,4.31-.7,7.11-.46,3.35,.28,6.76,1.18,9.59,2.65,2.86,1.45,4.99,3.57,6.12,5.5-1.23-1.86-3.59-3.74-6.54-4.73-2.94-1.02-6.36-1.26-9.42-.81-4.26,.67-7.32,1.94-9.19,2.68-.56,.24-1.13,.48-1.71,.72-4.62,1.97-8.68,3.51-9.31,2.51-.6-.92,2.53-4.09,7.61-6.29,.47-.21,.95-.38,1.41-.55Z"/>
      <path class="cls-1" d="M135.08,2.58c2.85,.11,6.95,.54,12.14,1.31,5.19,.78,11.5,1.95,18.69,3.76,2.17,.55,4.38,1.14,6.56,1.74,2.17,.58,4.34,1.11,6.52,1.27,2.17,.17,4.36-.08,6.32-.9,.97-.41,1.87-.98,2.58-1.7,.33-.36,.7-.79,.85-1.17,.17-.41,.22-.89,.15-1.36-.12-.92-.74-1.85-1.58-1.84-.41,0-.88,.17-1.13,.46-.27,.28-.3,.75-.22,1.2,.19,.92,.78,1.78,1.49,2.41,.75,.62,1.57,1.19,2.39,1.69,3.29,2.02,6.78,3.07,9.87,3.49-3.07-.36-6.61-1.29-10.06-3.24-.86-.49-1.71-1.02-2.53-1.66-.79-.69-1.48-1.58-1.73-2.7-.13-.55-.04-1.25,.42-1.73,.46-.46,1.07-.67,1.72-.63,.66,.05,1.24,.46,1.61,.96,.38,.5,.59,1.1,.67,1.72,.07,.62,0,1.27-.28,1.87-.3,.58-.65,1.04-1.08,1.48-.84,.88-1.88,1.55-2.98,2.04-2.2,1.01-4.69,1.33-7.1,1.24-2.42-.08-4.78-.55-7.07-1-2.28-.46-4.55-.88-6.79-1.26-6.23-1.05-11.76-1.77-16.46-2.29-4.7-.51-8.59-.86-11.48-1-1.72-.07-3.48-.11-5.27-.05-3.53,.11-6.86,.59-9.66,1.49-2.81,.92-5.19,2.23-6.91,3.64-1.75,1.39-2.84,2.85-3.53,3.95-.67,1.1-1,1.82-1.31,1.79-.14-.01-.24-.21-.3-.59-.08-.39-.05-.95,.07-1.67,.25-1.44,1.15-3.47,2.9-5.45,1.75-1.97,4.33-3.85,7.53-5.16,3.23-1.32,6.94-1.98,10.81-2.12,1.44-.05,2.84-.03,4.21,.03Z"/>
      <path class="cls-1" d="M109.33,8.48c-.4,.61-1.24,1.74-2.72,3.11-1.79,1.66-3.51,3.64-4.46,4.98,.74-1.46,1.66-4,2.28-6.43,.43-1.68,.94-2.87,1.29-3.57,.09-.21,.2-.43,.33-.64,.99-1.67,2.6-2.55,3.59-1.97,.99,.58,.98,2.4-.01,4.07-.09,.16-.19,.3-.3,.44Z"/>
      <path class="cls-1" d="M140.56,13.85c-.87-.35-2.14-.87-3.81-1.42-1.66-.53-3.75-1.16-6.2-1.47-3-.4-6.31-.12-9.18,.89-2.88,.98-5.19,2.83-6.43,4.68,1.11-1.9,3.25-4.05,6.16-5.52,2.89-1.5,6.39-2.41,9.83-2.65,4.82-.3,8.43,.79,10.52,1.47,.63,.2,1.27,.44,1.91,.71,2.54,1.07,4.61,2.44,5.97,3.63,1.36,1.19,2.02,2.2,1.74,2.69-.59,1.03-4.62-.49-9.23-2.47-.43-.18-.85-.36-1.27-.54Z"/>
    </g>
  </g>
</svg>