<?xml version="1.0" encoding="UTF-8"?>
<svg id="Layer_2" data-name="Layer 2" xmlns="http://www.w3.org/2000/svg" viewBox="0 0 196.27 27.92">
  <defs>
    <style>
      .cls-1 {
        fill: maroon;
      }
    </style>
  </defs>
  <g id="OBJECTS">
    <g>
      <path class="cls-1" d="M8.65,22.83c-.67,.63-1.55,.99-2.46,.98-.91,0-1.82-.33-2.61-.85-1.58-1.05-2.71-2.8-3.19-4.7-.5-1.89-.5-3.89-.15-5.76,.34-1.88,1.04-3.65,2-5.21C4.22,4.13,7.36,2.2,10.41,1.24,13.48,.26,16.5-.01,19.36,0c2.86,.04,5.55,.4,8.01,.99,1.24,.25,2.4,.63,3.55,.94,1.11,.38,2.21,.7,3.23,1.11,4.1,1.54,7.42,3.18,10.05,4.53l.31,.16c2.42,1.25,4.23,2.26,5.46,2.93,1.22,.68,1.85,1.03,1.85,1.03,5.03,2.83,9.82,5.44,14.33,7.41,4.5,2,8.71,3.27,12.34,3.91,3.63,.66,6.66,.59,8.8,.43,1.08-.03,1.93-.17,2.55-.19,.62-.03,1,.02,1.11,.14,.22,.24-.67,.83-2.58,1.58-1.92,.68-4.91,1.34-8.71,1.25-1.9,0-3.96-.29-6.17-.7-2.19-.47-4.52-1.07-6.89-1.95-4.78-1.67-9.78-4.16-14.87-6.99-7.84-4.36-15.73-9.13-23.86-11.68-4.04-1.29-8.12-1.9-12.01-1.75-3.9,.15-7.56,1.08-10.16,3.23C3.08,8.47,1.67,11.71,1.31,14.62c-.17,1.46-.1,2.87,.22,4.09,.31,1.2,.88,2.25,1.56,3.01,.68,.77,1.44,1.3,2.16,1.57,.72,.28,1.38,.29,1.9,.21,1.04-.22,1.49-.7,1.5-.67Z"/>
      <path class="cls-1" d="M15.74,16.12c.23-1.31,.83-2.54,1.66-3.58,.84-1.03,1.9-1.85,3.03-2.48,2.26-1.28,4.91-1.7,7.32-1.49,2.44,.18,4.7,.85,6.76,1.59,2.07,.76,3.95,1.6,5.73,2.35,7.11,3.07,12.67,5.29,16.44,6.62l.22,.08c1.74,.6,3.07,1.06,3.97,1.33,.9,.29,1.37,.44,1.37,.44,3.75,1.16,7.38,2.03,10.73,2.62,3.35,.59,6.42,.82,9.02,.95,2.58,.1,4.61-.1,6.04-.39,1.43-.28,2.29-.57,2.54-.36,.24,.18-.18,.89-1.41,1.73-1.23,.84-3.33,1.68-6,2.06-2.66,.38-5.82,.45-9.37,.16-3.54-.3-7.41-1.02-11.36-2.16-6.13-1.75-12.15-4.41-17.73-7.17-2.79-1.38-5.47-2.81-8.02-4.17-2.52-1.36-4.91-2.54-7.21-3.25-2.31-.7-4.5-.92-6.41-.56-1.93,.33-3.52,1.13-4.66,2-1.13,.9-1.8,1.86-2.17,2.57-.2,.35-.3,.64-.37,.83-.08,.2-.12,.3-.12,.3Z"/>
      <path class="cls-1" d="M98.06,23.67c-1.68,.05-3.32-.39-4.73-1.08-1.41-.71-2.59-1.69-3.51-2.74-.45-.54-.86-1.07-1.18-1.63-.16-.25-.34-.58-.48-.9-.14-.32-.25-.63-.34-.95-.18-.63-.27-1.26-.26-1.89,0-.7,.2-1.5,.47-2.05l.07-.14c.55-1.05,1.36-1.53,1.88-1.75,.54-.22,.85-.23,.85-.23,.6-.09,1.22-.01,1.79,.18,.29,.1,.56,.22,.83,.39,.23,.13,.43,.28,.63,.45,.8,.69,1.22,1.44,1.53,2.11,.3,.67,.47,1.24,.6,1.73,.14,.5,.25,.98,.35,1.42,.37,1.77,.35,3.02-.14,3.33s-1.36-.39-2.37-1.77c-.25-.34-.51-.73-.78-1.15-.26-.43-.52-.85-.79-1.29-.25-.39-.5-.7-.72-.88-.1-.08-.17-.11-.26-.15,0,.02-.01,.02,0,.03,0,.02,0,0-.04,0,0,.03,0-.06-.02,.02l-.02,.18c0,.14-.01,.29,0,.45,.02,.32,.08,.67,.18,.97,.53,1.6,1.42,3.06,2.39,4.19,.97,1.13,2.01,1.93,2.79,2.42,.39,.24,.72,.43,.95,.54,.23,.12,.35,.18,.35,.18Z"/>
      <path class="cls-1" d="M187.62,22.83c.67,.63,1.55,.99,2.46,.98,.91,0,1.82-.33,2.61-.85,1.58-1.05,2.71-2.8,3.19-4.7,.5-1.89,.5-3.89,.15-5.76-.34-1.88-1.04-3.65-2-5.21-1.98-3.16-5.12-5.1-8.16-6.05C182.79,.26,179.78-.01,176.92,0c-2.86,.04-5.55,.4-8.01,.99-1.24,.25-2.4,.63-3.55,.94-1.11,.38-2.21,.7-3.23,1.11-4.1,1.54-7.42,3.18-10.05,4.53l-.31,.16c-2.42,1.25-4.23,2.26-5.46,2.93-1.22,.68-1.85,1.03-1.85,1.03-5.03,2.83-9.82,5.44-14.33,7.41-4.5,2-8.71,3.27-12.34,3.91-3.63,.66-6.66,.59-8.8,.43-1.08-.03-1.93-.17-2.55-.19-.62-.03-1,.02-1.11,.14-.22,.24,.67,.83,2.58,1.58,1.92,.68,4.91,1.34,8.71,1.25,1.9,0,3.96-.29,6.17-.7,2.19-.47,4.52-1.07,6.89-1.95,4.78-1.67,9.78-4.16,14.87-6.99,7.84-4.36,15.73-9.13,23.85-11.68,4.04-1.29,8.12-1.9,12.01-1.75,3.9,.15,7.56,1.08,10.16,3.23,2.62,2.09,4.03,5.33,4.39,8.23,.17,1.46,.1,2.87-.22,4.09-.31,1.2-.88,2.25-1.56,3.01-.68,.77-1.44,1.3-2.16,1.57-.72,.28-1.38,.29-1.9,.21-1.04-.22-1.49-.7-1.5-.67Z"/>
      <path class="cls-1" d="M180.53,16.12c-.23-1.31-.83-2.54-1.66-3.58-.84-1.03-1.9-1.85-3.03-2.48-2.26-1.28-4.91-1.7-7.32-1.49-2.44,.18-4.7,.85-6.76,1.59-2.07,.76-3.95,1.6-5.73,2.35-7.11,3.07-12.67,5.29-16.44,6.62l-.22,.08c-1.74,.6-3.07,1.06-3.97,1.33-.9,.29-1.37,.44-1.37,.44-3.75,1.16-7.38,2.03-10.73,2.62-3.35,.59-6.42,.82-9.02,.95-2.58,.1-4.61-.1-6.04-.39-1.43-.28-2.29-.57-2.54-.36-.24,.18,.18,.89,1.41,1.73,1.23,.84,3.33,1.68,6,2.06,2.66,.38,5.82,.45,9.37,.16,3.54-.3,7.41-1.02,11.36-2.16,6.13-1.75,12.15-4.41,17.73-7.17,2.79-1.38,5.47-2.81,8.02-4.17,2.52-1.36,4.91-2.54,7.21-3.25,2.31-.7,4.5-.92,6.41-.56,1.93,.33,3.52,1.13,4.66,2,1.13,.9,1.8,1.86,2.17,2.57,.2,.35,.3,.64,.37,.83,.08,.2,.12,.3,.12,.3Z"/>
      <path class="cls-1" d="M98.22,23.67c1.68,.05,3.32-.39,4.73-1.08,1.41-.71,2.59-1.69,3.51-2.74,.45-.54,.86-1.07,1.18-1.63,.16-.25,.34-.58,.48-.9,.14-.32,.25-.63,.34-.95,.18-.63,.27-1.26,.26-1.89,0-.7-.2-1.5-.47-2.05l-.07-.14c-.55-1.05-1.36-1.53-1.88-1.75-.54-.22-.85-.23-.85-.23-.6-.09-1.22-.01-1.79,.18-.29,.1-.56,.22-.83,.39-.23,.13-.43,.28-.63,.45-.8,.69-1.22,1.44-1.53,2.11-.3,.67-.47,1.24-.6,1.73-.14,.5-.25,.98-.35,1.42-.37,1.77-.35,3.02,.14,3.33s1.36-.39,2.37-1.77c.25-.34,.51-.73,.78-1.15,.26-.43,.52-.85,.79-1.29,.25-.39,.5-.7,.72-.88,.1-.08,.17-.11,.26-.15,0,.02,.01,.02,0,.03,0,.02,0,0,.04,0,0,.03,0-.06,.02,.02l.02,.18c0,.14,.01,.29,0,.45-.02,.32-.08,.67-.18,.97-.53,1.6-1.42,3.06-2.39,4.19-.97,1.13-2.01,1.93-2.79,2.42-.39,.24-.72,.43-.95,.54-.23,.12-.35,.18-.35,.18Z"/>
    </g>
  </g>
</svg>