<?xml version="1.0" encoding="UTF-8"?>
<svg id="Layer_2" data-name="Layer 2" xmlns="http://www.w3.org/2000/svg" viewBox="0 0 198.17 40.83">
  <defs>
    <style>
      .cls-1 {
        fill: #d4af37;
      }
    </style>
  </defs>
  <g id="OBJECTS">
    <g>
      <g>
        <path class="cls-1" d="M25.89,2.9c.65,.43,1.56,1.12,2.51,2.21,.93,1.07,1.92,2.57,2.59,4.39,1.64,4.42,2.44,8.82,3.35,11.52-.67-1.22-1.72-2.76-3.06-4.26-1.33-1.49-2.97-2.92-4.68-3.82-2.35-1.24-3.87-1.81-4.76-2.23-.27-.1-.54-.21-.8-.35-1.02-.53-1.78-1.26-2.44-2.19-.64-.92-1.24-2.03-1.26-3.28-.02-1.22,.7-2.4,2.15-3.01,1.43-.61,3.55-.56,5.43,.42,.36,.17,.67,.39,.98,.6Z"/>
        <path class="cls-1" d="M8.79,10.29c.1,.57,.27,1.45,.99,2.7,.73,1.23,2.01,2.8,4.15,4.22,2.65,1.77,6.34,2.69,9.77,3.31,3.46,.64,6.66,1.13,9.15,1.39-2.49,0-5.76,.18-9.34,.51-3.57,.31-7.59,.78-11.82-.02-2.98-.56-5.53-1.96-7.41-3.67-1.9-1.71-3.07-3.78-3.64-5.48-.2-.49-.32-1.03-.45-1.57C.11,11.09,0,10.47,0,9.86-.07,7.43,.71,5.31,1.78,3.68,2.88,2.05,4.34,.92,5.74,.39c1.41-.54,2.69-.47,3.5-.12,.83,.37,1.2,.95,1.24,1.56,.05,.62-.19,1.25-.43,1.84-.25,.62-.49,1.23-.67,1.86-.18,.63-.33,1.29-.46,1.99-.11,.7-.19,1.44-.17,2.07,0,.12,0,.23,0,.33,0,.05,0,.11,0,.16l.03,.21Z"/>
        <path class="cls-1" d="M16.11,32.53c.34-.72,.9-1.76,1.9-2.86,.99-1.09,2.43-2.28,4.32-3.01,2.27-.89,4.59-1.26,6.63-1.27,2.05-.02,3.8,.35,5.1,.68-1.33-.08-3.11,.25-4.72,1.18-1.61,.9-3.02,2.37-3.72,3.96-.5,1.09-.76,2-.98,2.74-.2,.75-.36,1.32-.47,1.75-.05,.26-.12,.53-.2,.79-.35,1.02-.95,1.89-1.77,2.68-.81,.77-1.83,1.49-3.03,1.64-1.19,.15-2.39-.43-3.16-1.77-.76-1.32-1.03-3.39-.33-5.43,.12-.38,.29-.73,.45-1.08Z"/>
      </g>
      <g>
        <path class="cls-1" d="M172.28,2.9c-.65,.43-1.56,1.12-2.51,2.21-.93,1.07-1.92,2.57-2.59,4.39-1.64,4.42-2.44,8.82-3.35,11.52,.67-1.22,1.72-2.76,3.06-4.26,1.33-1.49,2.97-2.92,4.68-3.82,2.35-1.24,3.87-1.81,4.76-2.23,.27-.1,.54-.21,.8-.35,1.02-.53,1.78-1.26,2.44-2.19,.64-.92,1.24-2.03,1.26-3.28,.02-1.22-.7-2.4-2.15-3.01-1.43-.61-3.55-.56-5.43,.42-.36,.17-.67,.39-.98,.6Z"/>
        <path class="cls-1" d="M189.37,10.29c-.1,.57-.27,1.45-.99,2.7-.73,1.23-2.01,2.8-4.15,4.22-2.65,1.77-6.34,2.69-9.77,3.31-3.46,.64-6.66,1.13-9.15,1.39,2.49,0,5.76,.18,9.34,.51,3.57,.31,7.59,.78,11.82-.02,2.98-.56,5.53-1.96,7.41-3.67,1.9-1.71,3.07-3.78,3.64-5.48,.2-.49,.32-1.03,.45-1.57,.1-.59,.2-1.21,.2-1.82,.07-2.43-.7-4.56-1.77-6.19-1.1-1.63-2.56-2.75-3.97-3.28-1.41-.54-2.69-.47-3.5-.12-.83,.37-1.2,.95-1.24,1.56-.05,.62,.19,1.25,.43,1.84,.25,.62,.49,1.23,.67,1.86,.18,.63,.33,1.29,.46,1.99,.11,.7,.19,1.44,.17,2.07,0,.12,0,.23,0,.33,0,.05,0,.11,0,.16l-.03,.21Z"/>
        <path class="cls-1" d="M182.06,32.53c-.34-.72-.9-1.76-1.9-2.86-.99-1.09-2.43-2.28-4.32-3.01-2.27-.89-4.59-1.26-6.63-1.27-2.05-.02-3.8,.35-5.1,.68,1.33-.08,3.11,.25,4.72,1.18,1.61,.9,3.02,2.37,3.72,3.96,.5,1.09,.76,2,.98,2.74,.2,.75,.36,1.32,.47,1.75,.05,.26,.12,.53,.2,.79,.35,1.02,.95,1.89,1.77,2.68,.81,.77,1.83,1.49,3.03,1.64,1.19,.15,2.39-.43,3.16-1.77,.76-1.32,1.03-3.39,.33-5.43-.12-.38-.29-.73-.45-1.08Z"/>
      </g>
      <g>
        <path class="cls-1" d="M159.61,22.96c-.67,0-1.21,.36-1.21,.81s.54,.81,1.21,.81,1.21-.36,1.21-.81-.54-.81-1.21-.81Z"/>
        <path class="cls-1" d="M156.55,22.69c-.89,0-1.61,.49-1.61,1.09s.72,1.09,1.61,1.09,1.61-.49,1.61-1.09-.72-1.09-1.61-1.09Z"/>
        <path class="cls-1" d="M152.45,22.33c-1.19,0-2.15,.65-2.15,1.45s.96,1.45,2.15,1.45,2.15-.65,2.15-1.45-.96-1.45-2.15-1.45Z"/>
        <path class="cls-1" d="M147,21.85c-1.58,0-2.87,.86-2.87,1.93s1.28,1.93,2.87,1.93,2.87-.86,2.87-1.93-1.28-1.93-2.87-1.93Z"/>
        <path class="cls-1" d="M139.72,21.2c-2.11,0-3.83,1.15-3.83,2.57s1.71,2.57,3.83,2.57,3.83-1.15,3.83-2.57-1.71-2.57-3.83-2.57Z"/>
        <path class="cls-1" d="M130.02,20.34c-2.82,0-5.1,1.54-5.1,3.43s2.28,3.43,5.1,3.43,5.1-1.54,5.1-3.43-2.28-3.43-5.1-3.43Z"/>
        <path class="cls-1" d="M117.09,19.2c-3.76,0-6.8,2.05-6.8,4.58s3.05,4.58,6.8,4.58,6.8-2.05,6.8-4.58-3.04-4.58-6.8-4.58Z"/>
        <ellipse class="cls-1" cx="99.84" cy="23.78" rx="9.07" ry="6.1"/>
        <path class="cls-1" d="M40.25,22.76c-.67,0-1.21,.36-1.21,.81s.54,.81,1.21,.81,1.21-.36,1.21-.81-.54-.81-1.21-.81Z"/>
        <path class="cls-1" d="M43.32,22.49c-.89,0-1.61,.49-1.61,1.09s.72,1.09,1.61,1.09,1.61-.49,1.61-1.09-.72-1.09-1.61-1.09Z"/>
        <ellipse class="cls-1" cx="47.41" cy="23.58" rx="2.15" ry="1.45"/>
        <path class="cls-1" d="M52.87,21.65c-1.58,0-2.87,.86-2.87,1.93s1.28,1.93,2.87,1.93,2.87-.86,2.87-1.93-1.28-1.93-2.87-1.93Z"/>
        <path class="cls-1" d="M60.14,21c-2.11,0-3.83,1.15-3.83,2.57s1.71,2.57,3.83,2.57,3.83-1.15,3.83-2.57-1.71-2.57-3.83-2.57Z"/>
        <path class="cls-1" d="M69.84,20.14c-2.82,0-5.1,1.54-5.1,3.43s2.28,3.43,5.1,3.43,5.1-1.54,5.1-3.43-2.28-3.43-5.1-3.43Z"/>
        <path class="cls-1" d="M82.78,19c-3.76,0-6.8,2.05-6.8,4.58s3.04,4.58,6.8,4.58,6.8-2.05,6.8-4.58-3.04-4.58-6.8-4.58Z"/>
      </g>
    </g>
  </g>
</svg>