<?xml version="1.0" encoding="UTF-8"?>
<svg id="Layer_2" data-name="Layer 2" xmlns="http://www.w3.org/2000/svg" viewBox="0 0 201.33 37.25">
  <defs>
    <style>
      .cls-1 {
        fill: #d4af37;
      }
    </style>
  </defs>
  <g id="OBJECTS">
    <g>
      <path class="cls-1" d="M22.34,31.63c6.16,1.33,12.68,.97,18.45-.59,5.87-1.58,11.18-4.19,15.94-7.09,4.77-2.91,9.04-6.09,13-9.15,1.97-1.5,3.96-3.15,6.43-4.37,2.42-1.24,5.5-1.83,8.14-1.41,2.67,.36,4.9,1.41,6.69,2.65,1.77,1.27,3.14,2.74,4.07,4.29,1.85,3.08,2.16,6.02,2.17,8.3-.02,2.3-.4,4.04-.73,5.19-.34,1.15-.66,1.72-.84,1.7-.19-.03-.25-.66-.27-1.81-.03-1.15-.01-2.85-.31-4.96-.32-2.09-.94-4.67-2.7-7.07-.85-1.18-2.06-2.28-3.52-3.19-1.47-.88-3.23-1.56-5.07-1.71-1.85-.18-3.66,.24-5.47,1.23-1.81,.98-3.54,2.48-5.5,4.11-3.88,3.22-8.16,6.63-13.13,9.81-4.96,3.17-10.69,6.13-17.28,7.98-6.64,1.85-14.1,2.33-21.4,.77-3.64-.78-7.14-2.09-10.21-3.93-3.08-1.84-5.69-4.22-7.56-6.97C1.39,22.66,.28,19.6,.04,16.51c-.23-3.09,.45-6.21,2.15-8.89C3.89,4.98,6.39,2.91,9.26,1.58,12.12,.24,15.45-.31,18.51,.17c3.05,.44,5.69,1.74,7.7,3.33,2.03,1.59,3.51,3.47,4.53,5.39,1,1.93,1.64,3.91,1.6,5.91-.02,.99-.24,1.99-.7,2.88-.46,.88-1.18,1.66-2.02,2.2-1.7,1.07-3.64,1.33-5.3,1.16-1.68-.17-3.1-.85-4.06-1.65-1.96-1.64-2.46-3.47-2.66-4.61-.09-.58-.09-1.03-.08-1.33,.02-.3,.03-.45,.03-.45,0,0,.01,.15,.03,.45,.03,.3,.09,.74,.25,1.29,.32,1.08,1.06,2.78,2.98,4.07,.94,.64,2.19,1.09,3.6,1.11,1.39,.03,2.95-.35,4.11-1.23,1.15-.88,1.71-2.29,1.57-3.86-.11-1.57-.81-3.26-1.82-4.86-1.03-1.59-2.42-3.11-4.18-4.3-1.74-1.2-3.86-2.05-6.1-2.25-4.45-.49-9.4,2.13-11.67,6.09-2.27,3.93-1.6,9.28,1.46,13.5,3.03,4.26,8.42,7.32,14.56,8.61Z"/>
      <path class="cls-1" d="M179,31.63c-6.16,1.33-12.68,.97-18.45-.59-5.87-1.58-11.18-4.19-15.94-7.09-4.77-2.91-9.04-6.09-13-9.15-1.97-1.5-3.96-3.15-6.43-4.37-2.42-1.24-5.5-1.83-8.14-1.41-2.67,.36-4.9,1.41-6.69,2.65-1.77,1.27-3.14,2.74-4.07,4.29-1.85,3.08-2.16,6.02-2.17,8.3,.02,2.3,.4,4.04,.73,5.19,.34,1.15,.66,1.72,.84,1.7,.19-.03,.25-.66,.27-1.81,.03-1.15,.01-2.85,.31-4.96,.32-2.09,.94-4.67,2.7-7.07,.85-1.18,2.06-2.28,3.52-3.19,1.47-.88,3.23-1.56,5.07-1.71,1.85-.18,3.66,.24,5.47,1.23,1.81,.98,3.54,2.48,5.5,4.11,3.88,3.22,8.16,6.63,13.13,9.81,4.96,3.17,10.69,6.13,17.28,7.98,6.64,1.85,14.1,2.33,21.4,.77,3.64-.78,7.14-2.09,10.21-3.93,3.08-1.84,5.69-4.22,7.56-6.97,1.86-2.74,2.97-5.8,3.2-8.89,.23-3.09-.45-6.21-2.15-8.89-1.7-2.64-4.2-4.71-7.07-6.04-2.85-1.34-6.19-1.88-9.25-1.41-3.05,.44-5.69,1.74-7.7,3.33-2.03,1.59-3.51,3.47-4.53,5.39-1,1.93-1.64,3.91-1.6,5.91,.02,.99,.24,1.99,.7,2.88,.46,.88,1.18,1.66,2.02,2.2,1.7,1.07,3.64,1.33,5.3,1.16,1.68-.17,3.1-.85,4.06-1.65,1.96-1.64,2.46-3.47,2.66-4.61,.09-.58,.09-1.03,.08-1.33-.02-.3-.03-.45-.03-.45,0,0-.01,.15-.03,.45-.03,.3-.09,.74-.25,1.29-.32,1.08-1.06,2.78-2.98,4.07-.94,.64-2.19,1.09-3.6,1.11-1.39,.03-2.95-.35-4.11-1.23-1.15-.88-1.71-2.29-1.57-3.86,.11-1.57,.81-3.26,1.82-4.86,1.03-1.59,2.42-3.11,4.18-4.3,1.74-1.2,3.86-2.05,6.1-2.25,4.45-.49,9.4,2.13,11.67,6.09,2.27,3.93,1.6,9.28-1.46,13.5-3.03,4.26-8.42,7.32-14.56,8.61Z"/>
      <path class="cls-1" d="M91.9,30.49s-3.2-16.16-8.58-13.88,6.9,13.06,8.58,13.88Z"/>
      <path class="cls-1" d="M108.67,31.22s14.21-8.98,9.99-12.95c-4.22-3.97-9.85,11.13-9.99,12.95Z"/>
      <path class="cls-1" d="M101.13,22.66s5.74-15.48-.09-16.18c-5.83-.7-.93,14.65,.09,16.18Z"/>
    </g>
  </g>
</svg>