<?xml version="1.0" encoding="UTF-8"?>
<svg id="Layer_2" data-name="Layer 2" xmlns="http://www.w3.org/2000/svg" viewBox="0 0 201.63 27.5">
  <defs>
    <style>
      .cls-1 {
        fill: maroon;
      }
    </style>
  </defs>
  <g id="OBJECTS">
    <g>
      <path class="cls-1" d="M100.98,16.27c-.13,.22-.33,.54-.64,.92-.6,.78-1.59,1.87-3.16,2.87-1.57,.98-3.73,1.89-6.33,2.12-1.68,.15-3.54-.03-5.4-.6,1.51-1.53,2.73-3.32,3.52-5.31,.54-1.37,.88-2.82,.96-4.31,.06-1.47-.1-2.94-.54-4.34-.84-2.79-2.79-5.41-5.71-6.72-2.82-1.25-6.04-1.24-8.76,.14-1.35,.69-2.47,1.81-3.18,3.03-.73,1.24-1.06,2.6-1.12,3.87-.1,2.56,.71,4.79,1.78,6.71,1.11,1.95,2.54,3.47,4.05,4.77,.61,.51,1.23,.96,1.87,1.39-3.18,1.67-6.94,2.18-10.58,1.82-2.25-.22-4.46-.72-6.56-1.44-2.1-.71-4.07-1.6-5.78-2.69-1.72-1.09-3.17-2.37-4.27-3.84-1.13-1.48-2.06-3.24-3.04-4.98-1-1.74-2.02-3.53-3.49-5.09-.7-.79-1.59-1.48-2.5-2.06-.97-.54-1.93-.97-3.01-1.2-2.13-.44-4.23-.12-5.95,.77-1.73,.85-3,2.44-3.47,4.01-.49,1.57-.38,3.15,.19,4.44,.55,1.3,1.61,2.29,2.68,2.74,2.16,.94,4.03,.43,4.98-.16,.98-.61,1.17-1.22,1.05-1.3-.14-.13-.58,.2-1.47,.41-.85,.22-2.31,.25-3.62-.6-.64-.41-1.13-1.04-1.38-1.88-.24-.83-.2-1.85,.21-2.78,.41-.93,1.15-1.7,2.24-2.15,1.07-.45,2.44-.56,3.67-.2,.6,.16,1.24,.51,1.82,.87,.56,.43,1.12,.88,1.61,1.51,1.02,1.18,1.85,2.77,2.73,4.49,.28,.54,.56,1.11,.85,1.69-.16,.26-.35,.53-.59,.82-1.01,1.33-2.91,2.95-5.64,3.94-1.35,.5-2.92,.81-4.55,.84-1.61,.04-3.39-.27-5.12-.86-1.74-.59-3.47-1.49-5.1-2.66-.81-.59-1.62-1.22-2.37-1.94-.76-.71-1.46-1.45-2.22-2.33-1.53-1.72-3.07-3.65-5.27-5.23-2.17-1.6-5.34-2.6-8.26-1.69C3.34,4.97,1.5,6.96,.59,9.1c-.94,2.15-.72,4.68,.39,6.4,1.09,1.73,2.65,2.69,4.05,3.18,1.41,.51,2.73,.52,3.75,.36,2.07-.38,2.77-1.39,2.6-1.61-.18-.32-1.15-.01-2.66-.26-.75-.13-1.64-.38-2.5-.92-.44-.26-.84-.6-1.22-.98-.36-.4-.66-.85-.87-1.33-.4-.97-.34-2.09,.27-3.2,.59-1.1,1.79-2.1,3.03-2.36,.15-.05,.31-.07,.46-.07,.15-.03,.3-.01,.45,0,.3,.01,.68,.07,1.02,.17,.68,.19,1.38,.56,2.09,1.1,1.44,1.09,2.82,2.77,4.41,4.58,3.25,3.86,7.79,6.73,12.36,7.72,2.29,.5,4.55,.59,6.64,.22,2.07-.36,3.86-1.07,5.32-1.96,2.94-1.78,4.53-4.07,5.19-5.72,.09-.2,.16-.39,.23-.57,.56,1.07,1.17,2.17,1.95,3.28,1.37,1.96,3.21,3.68,5.27,5.07,2.07,1.4,4.35,2.49,6.75,3.35,2.4,.87,4.97,1.51,7.67,1.81,2.7,.3,5.55,.23,8.38-.4,2.81-.61,5.59-1.86,7.93-3.66,2.67,.77,5.31,.86,7.54,.42,2.86-.56,5.05-1.8,6.57-3.03,1.52-1.25,2.38-2.5,2.88-3.36,.26-.43,.4-.78,.51-1.01,.1-.23,.15-.35,.15-.35,0,0-.07,.11-.21,.33Zm-25.51-3.08c-.74-1.56-1.18-3.35-1-4.97,.17-1.61,1.06-2.94,2.41-3.55,1.37-.63,3.33-.58,4.82,.19,1.44,.7,2.61,2.24,3.08,4.04,1.05,3.56-.69,7.66-4.03,10.36-.78-.56-1.53-1.18-2.23-1.88-1.2-1.21-2.32-2.63-3.05-4.19Z"/>
      <path class="cls-1" d="M100.44,15.94s.05,.12,.15,.35c.1,.23,.25,.58,.51,1.01,.49,.86,1.36,2.11,2.88,3.36,1.52,1.23,3.71,2.47,6.57,3.03,2.23,.44,4.87,.36,7.54-.42,2.34,1.8,5.12,3.05,7.93,3.66,2.83,.63,5.68,.7,8.38,.4,2.7-.3,5.28-.94,7.67-1.81,2.4-.86,4.69-1.96,6.75-3.35,2.06-1.39,3.9-3.1,5.27-5.07,.78-1.11,1.4-2.21,1.95-3.28,.06,.18,.14,.37,.23,.57,.66,1.64,2.25,3.94,5.19,5.72,1.46,.89,3.25,1.6,5.32,1.96,2.09,.36,4.34,.28,6.64-.22,4.57-.99,9.11-3.86,12.36-7.72,1.59-1.82,2.97-3.5,4.41-4.58,.71-.54,1.41-.9,2.09-1.1,.33-.1,.71-.16,1.02-.17,.15,0,.3-.02,.45,0,.15,0,.31,.03,.46,.07,1.24,.27,2.44,1.26,3.03,2.36,.61,1.11,.67,2.24,.27,3.2-.21,.48-.51,.93-.87,1.33-.38,.38-.79,.72-1.22,.98-.86,.55-1.76,.79-2.5,.92-1.51,.25-2.47-.06-2.66,.26-.17,.22,.53,1.23,2.6,1.61,1.01,.16,2.33,.15,3.75-.36,1.4-.49,2.97-1.45,4.05-3.18,1.11-1.72,1.33-4.24,.39-6.4-.91-2.14-2.75-4.14-5.55-5.01-2.92-.91-6.09,.1-8.26,1.69-2.2,1.59-3.74,3.51-5.27,5.23-.76,.87-1.46,1.61-2.22,2.33-.75,.71-1.56,1.35-2.37,1.94-1.63,1.17-3.37,2.07-5.1,2.66-1.73,.59-3.51,.89-5.12,.86-1.63-.03-3.2-.34-4.55-.84-2.73-.99-4.63-2.61-5.64-3.94-.24-.29-.43-.56-.59-.82,.29-.58,.58-1.14,.85-1.69,.88-1.72,1.71-3.31,2.73-4.49,.49-.62,1.05-1.08,1.61-1.51,.58-.36,1.22-.71,1.82-.87,1.24-.36,2.61-.25,3.67,.2,1.1,.45,1.84,1.21,2.24,2.15,.41,.93,.45,1.95,.21,2.78-.25,.84-.73,1.48-1.38,1.88-1.31,.85-2.77,.82-3.62,.6-.89-.21-1.33-.55-1.47-.41-.11,.08,.07,.69,1.05,1.3,.95,.59,2.82,1.09,4.98,.16,1.07-.46,2.13-1.45,2.68-2.74,.56-1.3,.68-2.87,.19-4.44-.46-1.57-1.74-3.15-3.47-4.01-1.72-.89-3.82-1.21-5.95-.77-1.09,.23-2.04,.66-3.01,1.2-.91,.58-1.79,1.27-2.5,2.06-1.48,1.56-2.49,3.35-3.49,5.09-.98,1.74-1.91,3.5-3.04,4.98-1.11,1.46-2.56,2.75-4.27,3.84-1.71,1.09-3.68,1.99-5.78,2.69-2.1,.72-4.31,1.22-6.56,1.44-3.65,.37-7.41-.14-10.58-1.82,.64-.43,1.26-.88,1.87-1.39,1.51-1.31,2.95-2.83,4.05-4.77,1.07-1.92,1.87-4.15,1.78-6.71-.06-1.27-.39-2.63-1.12-3.87-.71-1.22-1.83-2.34-3.18-3.03-2.71-1.38-5.94-1.39-8.76-.14-2.92,1.3-4.87,3.92-5.71,6.72-.44,1.4-.6,2.87-.54,4.34,.08,1.48,.42,2.93,.96,4.31,.79,1.99,2.02,3.78,3.52,5.31-1.86,.57-3.72,.75-5.4,.6-2.6-.23-4.76-1.14-6.33-2.12-1.57-1-2.57-2.09-3.16-2.87-.31-.39-.5-.71-.64-.92-.14-.22-.21-.33-.21-.33Zm22.67,1.43c-.71,.7-1.46,1.32-2.23,1.88-3.35-2.7-5.08-6.8-4.03-10.36,.47-1.8,1.64-3.34,3.08-4.04,1.49-.77,3.45-.81,4.82-.19,1.35,.61,2.24,1.95,2.41,3.55,.19,1.62-.26,3.41-1,4.97-.73,1.55-1.85,2.98-3.05,4.19Z"/>
      <path class="cls-1" d="M104.51,17.02c0,2.01-1.7,3.64-3.79,3.64s-3.79-1.63-3.79-3.64,1.7-3.64,3.79-3.64,3.79,1.63,3.79,3.64Z"/>
    </g>
  </g>
</svg>