<?xml version="1.0" encoding="UTF-8"?>
<svg id="Layer_2" data-name="Layer 2" xmlns="http://www.w3.org/2000/svg" xmlns:xlink="http://www.w3.org/1999/xlink" viewBox="0 0 14.16 19.11">
  <defs>
    <style>
      .cls-1 {
        fill: url(#linear-gradient-2);
      }

      .cls-2 {
        fill: url(#linear-gradient-15);
      }

      .cls-3 {
        fill: url(#linear-gradient-14);
      }

      .cls-4 {
        fill: url(#linear-gradient-6);
      }

      .cls-5 {
        fill: url(#linear-gradient-11);
      }

      .cls-6 {
        fill: url(#linear-gradient-10);
      }

      .cls-7 {
        fill: url(#linear-gradient-5);
      }

      .cls-8 {
        fill: url(#linear-gradient-7);
      }

      .cls-9 {
        fill: url(#linear-gradient-9);
      }

      .cls-10 {
        fill: url(#linear-gradient-3);
      }

      .cls-11 {
        fill: url(#linear-gradient);
      }

      .cls-12 {
        fill: url(#linear-gradient-4);
      }

      .cls-13 {
        fill: url(#linear-gradient-8);
      }

      .cls-14 {
        fill: url(#linear-gradient-12);
      }

      .cls-15 {
        fill: url(#linear-gradient-13);
      }
    </style>
    <linearGradient id="linear-gradient" x1="8.03" y1="-7.62" x2="8.75" y2="18.93" gradientTransform="translate(-2.25 2.77) rotate(-12.25)" gradientUnits="userSpaceOnUse">
      <stop offset=".21" stop-color="#eb940e"/>
      <stop offset=".72" stop-color="#a71a04"/>
    </linearGradient>
    <linearGradient id="linear-gradient-2" x1="10.97" y1="-7.7" x2="11.7" y2="18.84" xlink:href="#linear-gradient"/>
    <linearGradient id="linear-gradient-3" x1="8.16" y1="-7.63" x2="8.89" y2="18.92" xlink:href="#linear-gradient"/>
    <linearGradient id="linear-gradient-4" x1="8.02" y1="-7.62" x2="8.75" y2="18.93" xlink:href="#linear-gradient"/>
    <linearGradient id="linear-gradient-5" x1="13.03" y1="-7.76" x2="13.75" y2="18.79" xlink:href="#linear-gradient"/>
    <linearGradient id="linear-gradient-6" x1="13.75" y1="-7.78" x2="14.48" y2="18.77" xlink:href="#linear-gradient"/>
    <linearGradient id="linear-gradient-7" x1="13.63" y1="-7.78" x2="14.36" y2="18.78" xlink:href="#linear-gradient"/>
    <linearGradient id="linear-gradient-8" x1="13.4" y1="-7.77" x2="14.13" y2="18.78" xlink:href="#linear-gradient"/>
    <linearGradient id="linear-gradient-9" x1="2.81" y1="-7.48" x2="3.53" y2="19.07" xlink:href="#linear-gradient"/>
    <linearGradient id="linear-gradient-10" x1="1.29" y1="-7.44" x2="2.01" y2="19.11" xlink:href="#linear-gradient"/>
    <linearGradient id="linear-gradient-11" x1="3.16" y1="-7.49" x2="3.89" y2="19.06" xlink:href="#linear-gradient"/>
    <linearGradient id="linear-gradient-12" x1="3.14" y1="-7.48" x2="3.87" y2="19.05" xlink:href="#linear-gradient"/>
    <linearGradient id="linear-gradient-13" x1="3.18" y1="-7.5" x2="3.91" y2="19.06" xlink:href="#linear-gradient"/>
    <linearGradient id="linear-gradient-14" x1="2.55" y1="-7.48" x2="3.28" y2="19.08" xlink:href="#linear-gradient"/>
    <linearGradient id="linear-gradient-15" x1="9.39" y1="-7.67" x2="10.12" y2="18.89" xlink:href="#linear-gradient"/>
  </defs>
  <g id="Layer_1-2" data-name="Layer 1">
    <g>
      <path class="cls-11" d="M6.32,.24c-.12,.07-.18,.13-.3,.31-.07,.1-.14,.2-.16,.21-.02,.01-.11,.05-.18,.08-.18,.07-.23,.12-.28,.28-.12,.41,.17,.86,.82,1.28l.21,.14-.13-.02c-.38-.04-1.1,.11-1.76,.37-.47,.19-.98,.5-1.25,.8-.16,.17-.32,.47-.3,.56,.01,.05-.02,.17-.07,.26-.02,.04-.04,.09-.04,.11s-.02,.09-.05,.16c-.06,.14-.13,.4-.14,.54,0,.1,.05,.39,.11,.52,.03,.07,.03,.08,0,.11-.04,.04-.1,.29-.1,.43,0,.06,0,.21,.03,.33,.04,.25,.1,.4,.19,.48l.07,.06-.16-.02c-.26-.03-.48-.03-.73,.02-.46,.08-.81,.27-.87,.49-.02,.07-.02,.08,.03,.14,.03,.04,.06,.06,.07,.06,.01,0,.06,.03,.11,.06,.31,.24,.35,.39,.25,.77-.07,.28-.08,.36-.03,.59,.04,.19,.05,.2,.13,.31,.07,.09,.14,.14,.48,.35,.22,.14,.43,.28,.47,.31,.04,.04,.1,.12,.13,.18,.06,.11,.06,.11,.04,.23,0,.06,0,.11,0,.11,0,0,.02,.05,.03,.12,.04,.25,.2,.52,.4,.66,.06,.04,.22,.12,.35,.17,.13,.05,.28,.11,.31,.13,.04,.02,.07,.03,.08,.03,.06-.01-.14-.15-.39-.27-.12-.06-.25-.13-.31-.17-.11-.07-.22-.22-.3-.37-.06-.11-.11-.36-.11-.48,0-.1-.09-.29-.19-.4-.05-.05-.2-.17-.43-.31-.2-.12-.38-.25-.41-.28-.1-.08-.17-.23-.19-.39-.02-.16,0-.27,.06-.52,.02-.09,.04-.22,.04-.28,0-.31,.39-.53,.86-.47,.4,.05,.97,.43,1.34,.9,.2,.26,.31,.48,.39,.77,.07,.27,.08,.17,0-.13-.05-.24-.07-.3-.15-.43-.18-.33-.56-.74-.86-.94-.41-.27-.79-.35-1.15-.25-.21,.06-.34,.14-.42,.26-.04,.07-.06,.08-.07,.06-.02-.07-.18-.24-.34-.35-.16-.11-.16-.11-.15-.16,.07-.18,.56-.37,.99-.39,.5-.02,.98,.1,1.41,.37,.32,.2,.54,.4,.71,.66,.09,.12,.09,.14,.15,.39,.04,.19,.09,.32,.15,.47,.08,.19,.09,.22,.1,.35,.01,.3-.05,.85-.15,1.23-.1,.38-.37,1-.49,1.11-.02,.02-.05,.06-.07,.08-.03,.05,0,.08,.04,.04,.03-.02,.03-.02,.04,.03,.02,.09,0,.24-.05,.32-.06,.1-.19,.23-.39,.35-.15,.1-.16,.1-.4,.15-.19,.04-.24,.06-.24,.07s.09,0,.34-.03c.25-.04,.36-.05,.44-.04,.12,.01,.16-.01,.08-.05l-.05-.03,.14-.02c.17-.02,.32-.03,.36,0,.03,.01,.03,.03,.03,.17,0,.09-.01,.15-.02,.15-.04-.01-.12,.05-.17,.12-.13,.22-.14,.45-.04,1.48,.04,.47,.08,.9,.07,.99,0,.06,.03,.05,.04-.01,0-.05,0-.05,.03,.03,.02,.09,0,.12-.06,.07-.02-.01-.08-.04-.15-.06-.1-.03-.15-.03-.25,0-.07,.01-.17,.03-.23,.03-.08,0-.12,.02-.16,.05-.03,.02-.08,.06-.12,.08-.08,.05-.19,.21-.21,.31-.01,.04-.01,.11,0,.17,.02,.09,.02,.09-.07,.23-.17,.26-.19,.6-.03,.81,.04,.06,.04,.06,0,.15-.08,.2-.11,.46-.07,.65,.04,.16,.12,.25,.24,.24,.09,0,.11,.03,.12,.2,0,.07,.02,.17,.03,.23,.02,.1,.03,.12,.1,.16,.1,.07,.21,.07,.31,0,.05-.02,.09-.06,.11-.08,.04-.05,.05-.05,.11,.02,.05,.06,.13,.09,.2,.07,.06-.01,.2-.14,.3-.27l.11-.14h.09c.14,.03,.2,0,.28-.1,.03-.04,.03-.04,.05-.02,0,.01,.03,.05,.05,.08,.05,.08,.17,.18,.28,.2,.16,.04,.31-.03,.4-.19l.05-.08,.09,.03c.08,.02,.11,.02,.22,0,.21-.06,.38-.22,.43-.41,.03-.13-.02-.3-.14-.46-.05-.07-.09-.13-.09-.13s.08-.05,.16-.09c.09-.04,.23-.13,.34-.22,.16-.12,.2-.17,.29-.31,.13-.2,.19-.41,.16-.55-.03-.14-.1-.21-.26-.27,0,0,.02-.1,.04-.22,.03-.12,.05-.29,.06-.38,.01-.17,.01-.17-.15-.98-.18-.9-.18-.94-.14-1.36,.02-.16,.02-.24,0-.33-.02-.11-.03-.13-.08-.16-.08-.05-.15-.04-.24,.02-.16,.09-.25,.21-.32,.43-.05,.14-.04,.17-.06-.24,0-.13,0-.32,0-.43,0-.54-.04-1.13-.1-1.21-.03-.04-.12-.06-.19-.04-.05,.01-.07,.03-.11,.08-.04,.07-.05,.07-.04,.03,0-.1-.11-.21-.21-.22-.05,0-.04,0,.1-.08,.32-.15,.53-.21,.83-.21,.07,0,.15,0,.19,.01l.06,.02-.02,.1c-.02,.09-.02,.15-.02,.33,0,.06-.02,.07-.05,.03-.05-.09-.14,.05-.11,.16,.02,.06,.03,.07,.07,.07,.03,0,.06-.02,.08-.06,.02-.03,.04-.05,.05-.04,0,.03,.13,.12,.19,.14,.06,.02,.18,.01,.19,0,0-.01-.02-.02-.06-.02-.06,0-.19-.08-.25-.15-.02-.02-.02-.06-.02-.14,0-.14,.06-.36,.09-.37,.01,0,.06,0,.11,0h.09s.02,.12,.02,.12c.02,.1,.08,.26,.14,.41,.02,.05,.02,.06-.02,.07-.11,.02-.24,.42-.2,.6v.05s-.04-.03-.04-.03c-.03-.02-.07-.03-.09-.02-.05,.01-.1,.11-.08,.18,.03,.12,.17,.09,.2-.05,0-.03,.02-.04,.04-.04,.02,0,.02,0,.02-.03,0-.03,0-.02,.03,.01,.05,.07,.14,.12,.22,.14,.07,.02,.22,0,.21-.04,0-.01-.03-.01-.06,0-.11,.02-.27-.06-.35-.18-.04-.06-.04-.07-.03-.13,.02-.09,.12-.3,.16-.36l.03-.05,.05,.1c.03,.05,.12,.18,.2,.29,.13,.17,.14,.19,.11,.2-.06,.01-.1,.36-.06,.59,.02,.11,.02,.12-.02,.12-.09,0-.1,.19-.01,.21,.07,.01,.12-.03,.1-.09q-.01-.05,.14-.03c.09,.01,.34-.03,.42-.08l.05-.03,.05,.23c.03,.12,.06,.24,.07,.26,.02,.03,.01,.04-.01,.06-.06,.03-.06,.21,0,.24,.04,.02,.14,0,.17-.06,.01-.02,.02-.06,.02-.09,0-.04,0-.04,.04-.03,.07,.03,.23-.02,.34-.1,.16-.12,.16-.17,0-.08-.12,.07-.27,.11-.32,.08-.04-.03-.09,0-.08,.04,.01,.08-.09-.1-.12-.2-.04-.18-.04-.44,0-.45,0,0,.03,.01,.06,.03,.08,.06,.39,.2,.56,.25,.09,.03,.16,.06,.15,.07-.04,.04,.07,.35,.16,.47,.04,.05,.05,.07,.03,.11-.04,.1,.01,.16,.11,.14,.06-.01,.14-.1,.13-.15,0-.01,.02-.04,.06-.06,.04-.02,.1-.09,.15-.16l.08-.12,.07,.09c.08,.1,.18,.16,.24,.14t-.03-.06c-.09-.06-.18-.16-.22-.27-.04-.1-.1-.11-.09-.02,0,.07-.12,.2-.27,.31-.06,.05-.08,.07-.08,.1,0,.02,0,.02,0,.01,0-.01-.03-.02-.05-.02-.07,0-.13-.11-.2-.36l-.05-.17,.19,.02c.41,.04,.54,.04,.74,0,.16-.03,.18-.07,.04-.06-.06,0-.17,.02-.26,.02s-.17,0-.21,0c-.16,.01-.5-.08-.8-.22-.28-.13-.59-.33-.8-.51-.24-.2-.57-.62-.7-.87-.07-.14-.22-.53-.2-.54,0,0,.08,0,.17,0l.16,.02,.04,.16c.09,.35,.25,.59,.64,.98,.32,.31,.59,.45,1.04,.53,.23,.04,.34,.05,.56,.04,.19,0,.21-.01,.21-.03,0,0-.08-.02-.17-.02-.49-.02-1.02-.18-1.3-.4-.23-.18-.62-.59-.73-.78-.06-.11-.2-.43-.18-.45,0,0,.29,.02,.36,.03,.02,0,.05,.05,.08,.11,.07,.16,.18,.32,.31,.48,.25,.29,.44,.44,.77,.58,.32,.14,.55,.17,.85,.12l.14-.03,.03,.06c.08,.19,.15,.69,.13,.96-.02,.2-.11,.53-.23,.78-.25,.55-.86,1.31-1.37,1.71-.09,.07-.1,.12-.03,.17,.05,.04,.05,.04,.07,0,.06-.09,.16-.06,.42,.12,.12,.08,.23,.14,.24,.14,.02,0,.03,0,.03,.02,0,.07,.02,.07,.15,.04,.07-.02,.14-.04,.15-.05,.01,0,.11-.05,.21-.1,.46-.19,1.13-.55,1.37-.75,.15-.12,.3-.28,.58-.63,.57-.71,.86-1.46,.84-2.14-.02-.49-.11-.89-.33-1.39-.22-.52-.32-.72-.51-.97-.06-.09-.16-.24-.22-.33-.06-.09-.14-.21-.18-.27-.04-.06-.08-.12-.08-.13,0-.02,.03-.03,.08-.04,.07-.02,.09,0,.19,.06,.06,.04,.16,.13,.22,.19,.1,.11,.27,.39,.29,.46,0,.02,.02,.03,.03,.03,.01,0,.02-.01,.01-.02,0-.01,0-.04,.02-.07,.01-.03,.03-.12,.04-.2,.02-.13,.04-.17,.18-.4,.2-.31,.44-.61,.82-1.01,.37-.39,.55-.62,.67-.87,.27-.55,.32-.82,.23-1.33-.07-.42-.19-.72-.45-1.22-.13-.24-.14-.26-.19-.51-.06-.28-.06-.38,0-.61,.03-.15,.02-.17-.14-.16-.27,0-.91,.24-1.39,.51-.46,.26-.75,.5-.93,.76l-.08,.12v-.11c0-.14-.05-.44-.09-.49-.02-.03-.03-.05-.02-.1,.01-.09-.08-.42-.16-.54-.08-.14-.19-.27-.24-.28-.04,0-.04-.03-.08-.2-.07-.29-.22-.58-.42-.78l-.09-.09,.12-.15c.26-.32,.44-.62,.49-.82,.02-.08,.02-.1-.03-.26-.05-.14-.07-.19-.14-.27-.05-.06-.09-.14-.13-.23-.08-.23-.17-.32-.33-.34-.19-.02-.24-.04-.25-.07,0-.02-.04-.09-.06-.15-.05-.14-.14-.25-.2-.29-.13-.07-.31-.06-.62,.04l-.21,.07-.09-.06c-.17-.11-.35-.12-.6-.03-.09,.03-.22,.09-.28,.12-.19,.1-.25,.1-.44,.04-.24-.08-.35-.09-.51-.06-.07,.02-.16,.05-.2,.07Zm.42,.03s.14,.04,.24,.07c.24,.08,.32,.07,.55-.04,.12-.06,.22-.09,.38-.13,.2-.05,.22-.05,.33-.02,.06,.02,.12,.04,.12,.04,0,.03,.11,.02,.42-.04,.29-.06,.33-.07,.4-.05,.1,.03,.15,.1,.24,.29,.09,.2,.11,.22,.3,.24,.07,0,.15,.02,.18,.04,.06,.03,.13,.13,.19,.28,.03,.07,.08,.16,.14,.23,.08,.1,.1,.13,.13,.25,.03,.14,.03,.14-.03,.27-.1,.22-.32,.55-.53,.77-.07,.07-.07,.07-.13,.05l-.06-.02,.06-.12c.13-.25,.17-.42,.15-.68,0-.12-.01-.14-.05-.22-.07-.12-.2-.21-.25-.19-.03,.02-.04,.01-.08-.05-.05-.1-.21-.2-.34-.23-.15-.04-.27,0-.4,.09-.06,.04-.11,.08-.11,.08,0,0-.1-.04-.21-.1-.11-.05-.21-.1-.22-.09-.02,0-.04,.05-.05,.13,0,.04-.01,.07-.02,.08,0,0-.08-.06-.17-.14-.17-.15-.24-.19-.33-.19-.08,0-.17,.07-.29,.25-.16,.23-.28,.29-.53,.26h-.13s-.07,.05-.07,.05c-.04,.03-.11,.11-.16,.18-.14,.2-.18,.44-.09,.64,.03,.08,.03,.09,0,.07-.05-.03-.1-.06-.32-.25-.32-.27-.44-.44-.5-.69-.03-.12-.03-.16,0-.25,.04-.14,.06-.17,.23-.24,.08-.03,.17-.08,.19-.1,.02-.02,.1-.12,.16-.21,.06-.1,.15-.2,.19-.23,.13-.1,.3-.14,.47-.12Zm1.11,.88c.11,.07,.21,.13,.23,.13,.02,0,.04-.04,.05-.09,.01-.05,.02-.09,.02-.09,0,0,.04,0,.07,.03,.12,.07,.33,.16,.37,.15,.02,0,.09-.04,.14-.08,.12-.08,.23-.1,.36-.07,.11,.03,.27,.15,.31,.23,.02,.05,.07,.08,.06,.03,0-.01,.01-.02,.03-.03,.05,0,.11,.05,.18,.16,.05,.08,.05,.09,.04,.18,0,.05-.02,.14-.04,.18-.01,.05-.02,.1-.02,.12,.02,.11-.21,.53-.46,.81-.11,.12-.3,.3-.34,.3-.02,0-.02-.04,0-.18,.04-.18,.1-.36,.2-.59,.05-.1,.08-.19,.07-.2-.01-.02-.17,.25-.27,.45-.06,.14-.16,.45-.15,.5,0,.01,0,.03-.02,.03-.02,0-.04-.02-.05-.08-.01-.05-.04-.11-.06-.14-.03-.05-.04-.08-.04-.3,0-.14,0-.33,.02-.43,.01-.1,.02-.18,0-.18-.05,0-.13,.55-.13,.77,0,.05,0,.06-.04,.07-.07,.02-.14,.11-.15,.22,0,0-.02,.01-.04,.01-.02,0-.04-.01-.04-.02,0-.01,.02-.02,.03-.01,.06,0-.02-.14-.09-.16-.04-.01-.13-.33-.14-.49,0-.06,0-.11-.01-.12-.04-.02-.04,.19,0,.41l.03,.19-.06,.02s-.08,.05-.1,.07l-.04,.05-.04-.07s-.07-.15-.12-.26c-.12-.26-.15-.28-.09-.05,.08,.26,.16,.46,.21,.5l.04,.04h-.04s-.07-.03-.11-.08c-.11-.13-.42-.52-.45-.56-.01-.03-.03-.04-.04-.03-.02,.02,.14,.29,.32,.54,.14,.19,.14,.19,.12,.25-.01,.03-.03,.06-.03,.06,0,0-.08-.07-.16-.16-.14-.16-.24-.26-.46-.45-.31-.27-.41-.38-.48-.56-.03-.07-.03-.07,.05-.16,.11-.14,.3-.28,.4-.3,.07-.02,.1,0,.25,.05,.2,.08,.26,.09,.35,.07,.08-.02,.13-.06,.24-.17,.04-.04,.1-.1,.14-.13,.1-.08,.12-.08,.33,.03,.09,.05,.16,.08,.16,.07,0,0-.04-.05-.1-.1-.24-.2-.35-.19-.59,.04-.21,.2-.21,.2-.58,.04-.09-.04-.11-.04-.23-.01-.11,.02-.14,.04-.23,.11-.06,.05-.13,.13-.16,.17-.08,.11-.09,.08-.03-.08,.05-.12,.17-.31,.21-.32,.01,0,.07,0,.13,.01,.14,.02,.32-.01,.42-.08,.04-.03,.12-.11,.17-.18,.21-.27,.21-.27,.48-.09Zm-1.64,1.44c.19,0,.3,0,.34,.06l.04,.04-.09,.06c-.36,.23-.77,.4-1.62,.68-.67,.22-.96,.33-1.26,.5-.09,.05-.19,.1-.22,.11-.03,0-.08,.04-.12,.08-.04,.04-.07,.06-.07,.05,0,0-.03-.01-.05,0-.05,.01-.05,0,.02-.1,.21-.33,.75-.73,1.38-1,.19-.08,.66-.25,.95-.34,.13-.04,.57-.12,.69-.12Zm.58,.26c.06,.05,.11,.1,.11,.11,0,0-.03,.06-.07,.11-.19,.26-.37,.45-.55,.6-.22,.18-.74,.46-1.43,.77-1,.46-1.32,.68-1.61,1.14-.13,.21-.18,.37-.16,.57,0,.07,0,.13,0,.14-.01,.02-.07-.19-.08-.27,0-.07-.01-.09-.05-.11-.05-.02-.05-.04-.1-.22-.04-.16-.05-.22-.04-.34,.02-.28,.11-.56,.27-.83,.12-.2,.15-.22,.4-.37,.39-.23,.6-.31,1.35-.55,.96-.31,1.43-.51,1.72-.75,.05-.04,.1-.08,.11-.08,.01,0,.07,.04,.13,.09Zm.34,.31c.06,.07,.18,.19,.27,.27,.08,.09,.15,.16,.15,.16,0,.03-.15,.33-.24,.47-.25,.36-.76,.86-1.2,1.17-.46,.32-.79,.5-1.38,.73-.48,.19-.54,.21-.69,.3-.21,.13-.32,.28-.28,.41,.03,.08,.07,.07,.08-.02,0-.05,.03-.09,.09-.14,.11-.1,.26-.17,.71-.32,.47-.16,.65-.23,.9-.36,.53-.27,.98-.6,1.4-1.03,.29-.3,.47-.55,.57-.78l.03-.07,.06,.04s.07,.04,.1,.04c.04,0,.04,.01,.06,.09,0,.06,.02,.1,.06,.13,.03,.02,.05,.05,.06,.07,0,.03,.04,.03,.04,0,0,0,.04-.02,.1-.03,.09-.01,.1,0,.12,.04,.07,.16,.29,.14,.42-.05l.04-.06v.04s.03,.04,.04,.03c.02-.01,.04,.03,.1,.15,.14,.3,.32,.49,.56,.61,.17,.08,.32,.12,.78,.2,.49,.08,.63,.12,.69,.2l.05,.06-.03,.22c-.02,.12-.06,.34-.1,.49-.03,.15-.07,.33-.07,.4,0,.07-.02,.13-.03,.14-.04,0-.23,.32-.29,.47-.17,.4-.15,.52,.11,.88,.26,.36,.36,.54,.46,.8,.1,.27,.22,.47,.43,.78,.07,.1,.16,.24,.21,.32s.13,.21,.19,.29c.21,.29,.31,.49,.54,1.06,.09,.23,.12,.32,.19,.63,.15,.69,.12,1.09-.12,1.71-.15,.38-.28,.62-.49,.92-.22,.31-.32,.42-.48,.56-.07,.06-.14,.13-.15,.15-.09,.13-1.21,.75-1.66,.91-.06,.02-.08,.02-.08,0,0-.01,0-.03,0-.04,.03-.03-.12-.24-.24-.32-.13-.08-.22-.1-.38-.07-.07,.02-.13,.02-.13,.01,0,0,.1-.09,.22-.19,.39-.31,.67-.62,1-1.14,.41-.63,.53-1.13,.45-1.75-.03-.23-.11-.52-.2-.73-.09-.21-.28-.56-.35-.66l-.06-.09,.08,.03c.19,.06,.53,.21,.78,.33,.29,.14,.34,.16,.38,.11,.08-.1-.19-.38-.63-.65-.37-.23-.7-.38-1.09-.49-.16-.05-.17-.05-.23-.14-.19-.3-.57-.57-.95-.66-.28-.07-.3-.05-.04,.05,.23,.09,.49,.25,.64,.39,.16,.15,.29,.37,.33,.53,.02,.07,.03,.16,.03,.2,0,.07,0,.07-.05,.07-.06,0-.07,.04,0,.04,.04,0,.05,.02,.04,.06,0,.04-.02,.04-.17-.02-.28-.11-.74-.22-1.55-.35-.78-.13-1.15-.24-1.5-.47-.32-.21-.47-.36-.68-.76-.09-.17-.13-.25-.15-.34-.01-.06-.05-.21-.09-.33-.05-.17-.07-.26-.08-.39v-.16s.05,.17,.05,.17c.08,.21,.19,.36,.3,.39,.04,.01,.11,.06,.16,.1,.15,.14,.17,.25,.09,.37-.04,.06-.04,.06,0,.05,.05-.01,.12-.13,.11-.19-.02-.15-.06-.21-.2-.34-.04-.04-.07-.07-.07-.08,0,0-.02-.05-.05-.09-.03-.04-.05-.09-.05-.11,0-.02,0-.04-.02-.03-.03,0-.09-.3-.1-.51,0-.21,.02-.48,.06-.61,.05-.16,.21-.39,.32-.48,.06-.05,.23-.15,.39-.24,.29-.16,.48-.3,.53-.39,.01-.03,.08-.08,.15-.12,.34-.2,.71-.49,.9-.74,.12-.15,.32-.48,.41-.66,.07-.16,.11-.33,.09-.39-.02-.04-.02-.04-.04,.06-.05,.23-.46,.85-.72,1.08-.41,.37-.96,.68-1.44,.82-.25,.07-.29,.08-.74,.13-.47,.06-.73,.14-.93,.3-.04,.04-.1,.08-.13,.11-.09,.07-.09,.12-.02,.36,.06,.21,.12,.33,.2,.37,.04,.02,.04,.01,0-.06-.02-.04-.06-.18-.08-.31l-.05-.23,.09-.07c.21-.16,.46-.25,.85-.29,.47-.04,.91-.14,1.2-.26,.12-.05-.09,.08-.3,.18-.39,.19-.51,.29-.65,.53-.09,.16-.16,.4-.17,.59,0,.29,.03,.63,.1,.79,.02,.04,.03,.09,.03,.12-.02,.12-.21-.5-.2-.65,0-.08-.01-.12-.05-.12-.04,0-.05,.06-.04,.17,0,.07,0,.12-.02,.14-.01,.02-.03,.09-.03,.16v.12s-.03-.12-.03-.12c-.02-.06-.04-.18-.06-.26-.02-.11-.03-.14-.05-.13-.04,0-.06,.05-.05,.1,.02,.09,0,.08-.13-.05-.31-.32-.7-.57-1.12-.7-.17-.05-.25-.12-.32-.27-.09-.19-.13-.61-.07-.87l.02-.11,.03,.14c.06,.28,.16,.42,.42,.59,.25,.17,.46,.22,.45,.1,0-.03-.02-.05-.05-.06-.1-.04-.31-.18-.4-.27l-.1-.09v-.18c-.03-.28-.01-.39,.09-.57,.14-.25,.36-.47,.65-.67,.18-.12,.44-.25,.91-.47,.98-.44,1.42-.7,1.7-.99,.12-.12,.3-.35,.38-.48,.03-.05,.06-.09,.07-.09,0,0,.07,.05,.13,.12Zm2.46-.53s.03,.02,.02,.02c-.01,.02-.28,.23-.28,.22-.01,0,.17-.24,.2-.25,.01,0,.04,0,.06,0Zm-1.55,.39s.03,.04,.04,.06c.02,.02,.02,.03-.01,.04-.02,0-.07,.03-.1,.05-.04,.02-.08,.04-.08,.04-.03-.02,0-.11,.04-.15,.06-.06,.09-.07,.11-.03Zm.44-.03s.04,.05,.05,.05c.03,0,.05,.01,.08,.09,.04,.09,0,.11-.07,.06-.04-.03-.11-.06-.16-.07l-.09-.02,.03-.04c.08-.11,.13-.13,.16-.06Zm1.35-.18c.11,.11,.24,.3,.33,.47,.07,.14,.15,.45,.14,.54,0,.03,0,.05,.01,.05,.01,0,.02-.03,.03-.06v-.05s.1,.1,.1,.1c.19,.23,.31,.51,.31,.68,0,.06,.02,.18,.04,.26,.04,.16,.05,.28,.03,.46v.1s-.11-.06-.11-.06c-.15-.09-.35-.15-.75-.22-.46-.08-.56-.11-.73-.21-.19-.11-.27-.2-.41-.43l-.11-.2,.04-.04s.05-.05,.06-.06c.02-.03,.04-.02,.13,.01,.13,.06,.28,.1,.57,.15,.49,.09,.73,.18,.9,.33,.09,.08,.13,.1,.13,.07,0,0-.04-.05-.08-.1-.16-.17-.41-.29-.81-.37-.64-.13-.79-.18-.78-.24,0-.04-.04-.06-.06-.03,0,.02-.01,.02-.02,0,0-.02,0-.03,.04-.04,.05-.01,.13-.07,.15-.12,.02-.03,.03-.03,.09-.02,.04,0,.24,.02,.44,.03,.49,.02,.66,.06,.81,.2,.06,.06,.06,.02,.01-.05-.07-.09-.21-.17-.36-.21-.08-.02-.28-.04-.5-.04-.2,0-.39-.01-.41-.01-.03,0-.05-.02-.06-.06-.01-.03-.04-.07-.06-.1-.03-.04-.03-.05,0-.06,.06-.03,.07-.11,.04-.19l-.03-.07,.15-.1c.08-.05,.23-.15,.32-.22,.17-.13,.27-.19,.29-.2,0,0,.06,.04,.11,.09Zm-6.67,1.44s-.07,.06-.07,.05c-.02-.01,.06-.1,.1-.1,.03,0,.02,0-.03,.05Zm4.65-.95s-.01,.04-.04,.09c-.06,.11-.04,.15,.03,.05,.03-.04,.03-.04,0,.07l-.04,.12-.05-.05s-.05-.05-.05-.12c0-.09,.04-.16,.1-.17,.03,0,.05,0,.05,0Zm.51-.05c.13,.04,.22,.12,.29,.25,.1,.2,.07,.38-.09,.51-.19,.16-.42,.15-.57-.03-.14-.15-.15-.41-.04-.59,.03-.05,.08-.11,.1-.12,.06-.04,.19-.05,.31-.02Zm.44,0s0,.03-.03,.04c-.03,.02-.05,.03-.06,.01,0,0-.02-.03-.01-.03,0-.02,.09-.04,.1-.02Zm.14,.07s.03,.1-.02,.15c-.07,.06-.09,.06-.13-.04-.02-.05-.03-.08-.03-.08,0,0,.03,0,.04-.02,.06-.04,.11-.04,.14,0Zm-1.2,.36s.05,.02,.07,.14c.03,.13,.02,.16-.04,.17-.05,0-.14-.05-.15-.1,0-.05,.02-.21,.05-.21,.01,0,.04,0,.07,0Zm1.2-.06s.03,.06,.02,.08c0,0-.01,.03,0,.06,0,.03,0,.06-.04,.09-.08,.08-.1,.08-.08-.01,0-.04,.02-.11,.01-.15,0-.04,0-.08,0-.1,0-.05,.07-.03,.1,.03Zm-.98,.47s.07,.06,.1,.07c.04,.02,.05,.03,.04,.05-.02,.04-.15,.02-.19-.03-.03-.03-.04-.05-.03-.09,.01-.06,.03-.07,.09-.01Zm.82,0s-.09,.06-.12,.02c0-.02,0-.03,0-.04,.01,0,.03-.03,.05-.05t.06,0s.02,.05,0,.07Zm-.37,.1c.07-.01,.12-.02,.12-.02,0,.05-.14,.16-.22,.18-.06,.01-.1-.02-.12-.1,0-.04,0-.05,.04-.04,.03,0,.11,0,.17-.02Zm4.99-.26c-.1,.27-.11,.45-.05,.75,.04,.2,.06,.24,.2,.52,.28,.56,.4,.91,.44,1.26,.04,.36,.01,.55-.12,.88-.16,.38-.25,.51-.69,1.05-.46,.56-.81,1.04-.91,1.28-.02,.04-.04,.07-.04,.06,0,0-.02,.05-.04,.13l-.04,.15-.06-.12c-.15-.31-.44-.55-.63-.51-.09,.02,.07-.09,.17-.11,.12-.03,.28,.01,.33,.08,.03,.04,.04,.05,.07,.03,.11-.06,.5-.49,.74-.81,.12-.17,.25-.39,.23-.4,0,0-.07,.07-.13,.16-.14,.18-.57,.69-.75,.87l-.11,.12-.07-.05c-.09-.07-.21-.09-.36-.05-.13,.04-.23,.12-.26,.22v.05s-.06-.06-.06-.06c-.23-.33-.36-.65-.51-1.27-.09-.37-.1-.43-.08-.42,.04,0,.15-.08,.18-.13,.02-.04,.02-.04-.03-.01-.13,.06-.16,.07-.17,.04,0-.02,.01-.03,.04-.04,.05-.01,.14-.1,.14-.13,0-.01-.02-.01-.03,0-.02,.01-.06,.03-.09,.04-.07,.03-.06,.03-.07-.17,0-.27,0-.45,.04-.57,.02-.06,.03-.14,.03-.17,0-.03,.02-.16,.05-.28,.03-.13,.06-.29,.07-.37,.04-.27,.17-.61,.32-.81,.22-.29,.73-.63,1.39-.93,.27-.12,.67-.27,.81-.31q.08-.02,.06,.03Zm-2.83,3.08c0,.07-.01,.17-.01,.23,0,.05-.02,.13-.04,.18-.06,.13-.1,.24-.12,.35v.1s-.04-.1-.04-.1c-.04-.14-.04-.3,0-.43,.06-.18,.19-.47,.21-.45,0,0,0,.07,0,.14Zm0,.57s0,.02-.02,.02c0,0-.01,0-.01-.02,0-.01,.01-.02,.02-.02,0,0,0,0,.01,.02Zm-.03,.22s0,0-.01-.02,0-.03,0-.03c0,.01,.01,.03,0,.05Zm-.05,.12s-.03,.08,0,.07c.02,0,.04-.03,.06-.06l.04-.05,.05,.24,.05,.24-.06-.09s-.09-.13-.13-.18c-.07-.08-.07-.09-.06-.16,0-.07,0-.07,.04-.05,.04,.02,.04,.03,0,.05Zm-5.17,2.26c.14,.15,.44,.36,.65,.46l.16,.07-.16,.05c-.31,.09-.92,.44-1.33,.78l-.22,.18,.05-.08c.26-.44,.44-.99,.5-1.59,.01-.13,.03-.25,.03-.27,0-.02,.05,.04,.1,.13,.05,.09,.15,.21,.21,.28Zm-.08,1.2c-.08,.13-.15,.26-.16,.31-.02,.08-.02,.09-.1,.1-.13,.03-.24,.16-.34,.41-.05,.13-.13,.4-.13,.48t-.11,.01c-.07-.01-.16-.02-.24,0l-.13,.02,.08-.07c.06-.05,.09-.1,.16-.28,.08-.21,.08-.22,.05-.32l-.03-.11,.11-.09c.06-.05,.13-.12,.15-.16,.03-.04,.08-.09,.12-.11,.04-.02,.21-.12,.38-.22,.17-.1,.31-.18,.32-.19,0,0-.05,.09-.12,.22Zm.35-.14s.05,.05,.06,.07c.01,.05-.01,.33-.03,.34-.02,.02-.04,.12-.03,.13,0,0,.02-.01,.03-.04,.01-.04,.01-.04,.02-.01,0,.02,0,.06-.01,.1-.04,.1-.07,.41-.08,.63-.01,.33,0,1.29,.03,1.57l.02,.26-.14,.16c-.07,.09-.17,.21-.22,.27l-.08,.11v-.25c.01-.14,0-.58-.03-.98-.05-.83-.05-1.03-.03-1.25,.02-.21,.1-.63,.14-.72,.05-.13,.23-.41,.26-.42,.02,0,.05,.01,.08,.03Zm.39,.08s.04,.03,.05,.14c.02,.15,.04,.66,.04,.96,0,.29,.02,.72,.05,.93,.02,.11,.02,.23,0,.34,0,.09-.02,.2-.02,.24v.08s-.12,.02-.12,.02c-.09,.02-.14,.04-.22,.11-.11,.08-.11,.08-.11,.04,0-.02,0-.45,0-.94,0-1.08,.03-1.38,.13-1.62,.01-.03,.02-.07,.02-.08-.01-.05,.07-.23,.11-.24,.01,0,.04,0,.06,.01Zm3.65-.49c.44,.17,1.03,.55,1.2,.76,.03,.04,.03,.05,0,.03-.02,0-.13-.07-.26-.13-.43-.21-1.01-.41-1.3-.46-.09-.01-.1-.01-.1-.07,0-.03,0-.12-.02-.19l-.02-.13,.17,.06c.09,.03,.23,.09,.31,.12Zm2.56-.78s0,.03-.01,.03,0-.01-.01-.03c0-.01,0-.03,.01-.03,0,0,.02,0,.01,.03Zm-3.88,1.02c.34,.05,.65,.12,.68,.16,.04,.04,.11,.02,.15-.06l.04-.07,.19,.05c.19,.05,.19,.05,.2,.11,0,.04,.02,.06,.03,.06,.02,0,.06,.05,.1,.11,.07,.11,.29,.55,.34,.68l.03,.08h-.08c-.34,.03-.51,.01-.75-.09-.37-.15-.55-.27-.81-.55-.16-.17-.41-.52-.38-.53,0,0,.12,.02,.26,.04Zm-1.71,.34s-.02,.02-.02,0c0-.03,.01-.05,.03-.04,0,0,0,.02,0,.03Zm-1.57,.53c-.08,.46-.08,.63,0,1.49,.04,.39,.08,.85,.09,1.03,.01,.18,.02,.34,.03,.37s-.06,.16-.15,.33c-.16,.29-.28,.52-.27,.55,0,.03,.03,0,.11-.15,.17-.34,.7-1.12,.77-1.14,0,0,.02,.01,.02,.03,.01,.06,.04,.04,.04-.04,0-.06,.02-.08,.11-.16,.12-.1,.3-.16,.32-.12,0,.01,.01,.08,.02,.15,0,.1,0,.13-.04,.17-.09,.1-.29,.42-.36,.58-.09,.2-.17,.48-.2,.72-.04,.25-.03,.7,.01,.66,0,0,.01-.06,.02-.12,0-.42,.18-1.05,.4-1.41,.1-.17,.25-.34,.33-.39,.08-.05,.01-.16-.07-.11-.02,.01-.03,0-.03,0,0-.01,0-.07,.01-.13,.03-.33,.17-.94,.27-1.13,.05-.1,.19-.23,.25-.25,.04,0,.04,0,.06,.08,.01,.06,.01,.16,0,.29-.05,.4-.04,.47,.13,1.36,.18,.88,.18,.9,.12,1.3-.04,.3-.05,.32-.21,.49-.21,.23-.51,.45-.84,.61-.15,.07-.4,.13-.52,.13-.05,0-.08,0-.09,.02-.01,.02-.04,.02-.1,.02-.07,0-.09-.02-.18-.12-.27-.3-.42-.6-.55-1.1-.09-.37-.13-.63-.16-1.23-.05-.86-.04-1.14,.04-1.33,.07-.18,.1-.12,.13,.41,.03,.4,.06,.64,.16,1.26,.03,.18,.04,.24,.06,.24,.03,0,.02-.19-.01-.67-.05-.71-.08-1.69-.04-1.72,0,0,0-.03,0-.04-.03-.05,.04-.38,.12-.59,.03-.06,.08-.16,.11-.21,.07-.09,.11-.13,.1-.08Zm1.86,.28s-.05,.01-.03-.03c.01-.02,.02-.03,.03-.01,0,0,0,.03,0,.04Zm.88,.04c.09,.11,.34,.31,.45,.38l.08,.05-.03,.05s-.06,.05-.15,.08c-.15,.04-.36,.05-.41,.02-.02-.02-.05-.02-.07-.01-.03,.02-.04-.01-.03-.25,0-.22,.04-.38,.08-.39,0,0,.04,.04,.08,.09Zm.67,1.21s0,.03-.02,.05c-.03,.02-.03,.02-.04,0-.01-.06,.03-.09,.06-.04Zm1,.24s-.07,.04-.06,.01c0-.01,.02-.02,.05-.03,.03,0,.04,0,.02,.02Zm-5.57,2.13s.11-.01,.14-.02c.05-.02,.08-.02,.13,.01,.04,.02,.07,.03,.08,.03,0,0,.05,.01,.09,.04,.04,.02,.08,.04,.1,.04,.02,0,.04,.03,.07,.13,.02,.08,.06,.18,.07,.23,.03,.08,.03,.09,0,.1-.02,0-.02,.01,0,.03,.02,.01,.03,.02,.04,.01,0,0,.04,.05,.08,.13l.07,.14-.1-.02c-.06,0-.11,0-.11,0-.02,.03,.03,.06,.13,.07h.11s.09,.13,.09,.13c.05,.07,.12,.15,.16,.19,.06,.06,.06,.07,.03,.08-.05,.01-.09,.1-.08,.2,.01,.23,.23,.38,.59,.4,.1,0,.19,0,.43-.06l.31-.07,.09,.13c.13,.19,.15,.27,.12,.41-.06,.24-.35,.41-.55,.32-.03-.01-.07-.02-.09-.02-.02,0-.06,.06-.1,.12-.08,.15-.16,.2-.28,.18-.11-.02-.23-.1-.29-.21l-.05-.09,.03-.12c.02-.1,.02-.16,0-.29-.02-.15-.03-.17-.09-.24-.06-.08-.08-.05-.03,.05,.04,.07,.04,.18,.02,.36-.01,.09-.03,.15-.08,.23-.07,.12-.12,.14-.24,.12-.08,0-.1,0-.22,.18-.1,.14-.2,.23-.27,.25-.04,0-.19-.08-.2-.11,0,0,0-.05,.02-.09,.02-.06,.01-.08,0-.07-.01,0-.03,.03-.04,.06-.04,.11-.22,.21-.33,.19-.11-.03-.13-.06-.18-.32-.04-.22-.05-.23-.1-.26-.05-.03-.22-.07-.24-.06-.03,.02-.05-.17-.03-.34,.03-.24,.1-.43,.25-.65,.13-.2,.24-.3,.41-.42,.1-.07,.12-.08,.39-.13,.23-.05,.28-.07,.28-.09,0-.01-.02-.02-.03,0-.02,0-.03,0-.03-.01,0-.01-.03-.04-.05-.04-.06-.02-.4,.04-.53,.11-.2,.1-.45,.35-.58,.57-.06,.1-.06,.1-.08,.06-.01-.03-.02-.04,0-.05,.01,0,0-.02-.01-.04-.07-.05-.05-.34,.03-.51,.09-.21,.26-.32,.56-.34,.24-.02,.46-.01,.5,.03,.03,.04,.06,.02,.05-.04-.02-.09-.22-.13-.54-.1-.16,.01-.29,.05-.39,.1-.03,.02-.04,.01-.04-.08-.01-.2,.13-.4,.33-.46,.06-.02,.11-.04,.11-.04,0,0,.02,0,.04,0,.02,0,.06,0,.1,0Zm3.22,.36c.12,.08,.14,.21,.08,.4-.1,.29-.36,.55-.74,.75-.19,.1-.22,.11-.51,.17-.27,.06-.32,.06-.44,.05-.15-.01-.25-.05-.32-.12-.05-.05-.09-.18-.06-.21,.03-.03,.23-.06,.34-.05,.17,.02,.44-.04,.62-.14,.31-.16,.6-.38,.73-.57,.04-.05,.08-.1,.08-.1,0,0,.04-.05,.07-.11,.03-.06,.07-.11,.07-.11,0,0,.04,.01,.06,.03Zm1.59-.32s0,.02-.01,.02c0,0-.02,0-.02,0,0-.01,0-.02,.01-.02,.01,0,.02,0,.02,0Zm.38,0c.09,.02,.22,.11,.28,.2,.09,.12,0,.08-.26-.11-.14-.1-.14-.12-.02-.08Z"/>
      <path class="cls-1" d="M8.41,1.61c0,.1,.08,.1,.27,.01,.12-.06,.17-.05,.24,.05,.08,.1,.09,.11,.29,.13,.19,.03,.27,.05,.34,.12,.1,.1,.11,.04,.01-.07-.07-.09-.28-.15-.41-.11-.05,.01-.07,0-.11-.02-.03-.02-.06-.06-.06-.07-.01-.06-.1-.13-.17-.14-.06,0-.09,0-.2,.06l-.13,.07-.04-.03s-.04-.03-.04,0Z"/>
      <path class="cls-10" d="M6.74,7.48c-.14,.05-.09,.06,.11,.01,.58-.13,1.02-.03,1.37,.31,.11,.11,.22,.28,.24,.37,.01,.07,.06,.11,.1,.08,.03-.02,.03-.04,0-.16-.06-.21-.15-.33-.41-.5-.29-.18-.51-.25-.82-.24-.17,0-.45,.06-.58,.12Z"/>
      <path class="cls-12" d="M7.34,7.77s.04,.01,.07,.01c.23,0,.55,.16,.58,.32,0,.03,0,.03-.06,.02-.04,0-.17,0-.29,0-.25,.01-.44-.02-.54-.1-.03-.03-.07-.05-.09-.05-.06,.01,.15,.19,.25,.22,.03,0,.05,.03,.05,.04,0,.03-.14,.04-.23,.01-.08-.02-.11-.01-.07,.02,.02,.02,.09,.04,.14,.05l.1,.02-.09,.03-.09,.03h.06s.08,.01,.12,0c.06-.02,.07-.02,.1,.03,.13,.19,.35,.22,.52,.08,.04-.04,.09-.06,.11-.06,.05,0,.08-.03,.1-.09,.02-.07-.02-.26-.07-.35-.04-.08-.18-.18-.3-.23-.14-.05-.41-.06-.4-.01Zm.13,.46c.05,0,.09,.02,.08,.03-.03,.03,0,.14,.07,.18,.05,.04,.07,.04,.13,.03,.06-.01,.08-.03,.12-.09,.03-.04,.05-.09,.04-.1,0-.03,0-.03,.03-.02,.07,.02,.06,.07-.04,.15-.13,.1-.16,.11-.23,.1-.11-.02-.28-.17-.3-.26,0-.03-.02-.03,.1-.01Zm.35,.05s-.01,.05-.05,.08l-.06,.05,.05-.06c.04-.05,.04-.06,.02-.09-.02-.02-.02-.02,0-.02,.02,0,.03,.02,.04,.04Z"/>
      <path class="cls-7" d="M12.05,4.93c-.51,.27-.91,.68-1.14,1.17-.08,.17-.09,.22-.06,.24,.01,0,.03-.01,.05-.06,.02-.04,.1-.18,.18-.31,.29-.46,.85-.93,1.23-1.04,.15-.04,.21-.04,.35,.03,.05,.02,.07,.05,.08,.09,0,.03,.08,.13,.17,.24,.15,.18,.32,.44,.53,.8,.19,.31,.25,.78,.16,1.13-.01,.04-.01,.08,0,.08s.03-.05,.06-.13c.09-.32,.07-.66-.04-.96-.02-.06-.13-.26-.24-.43-.17-.29-.26-.41-.47-.65-.04-.04-.08-.1-.1-.13-.02-.03-.05-.05-.06-.05-.01,0-.05-.01-.08-.03-.03-.02-.09-.05-.14-.07-.12-.04-.32,0-.48,.08Z"/>
      <path class="cls-4" d="M13.31,7.68s.02,.01,.03,.01c0,0,.01-.01,.01-.02,0-.01-.02-.02-.03-.01-.01,0-.02,.01-.01,.02Z"/>
      <path class="cls-8" d="M13.23,7.81c-.05,.06-.04,.08,0,.07,.03,0,.08-.09,.07-.12,0-.02-.03,0-.07,.05Z"/>
      <path class="cls-13" d="M13.04,8.04s-.03,.05-.02,.06c.01,.01,.03,0,.05-.03,.06-.08,.03-.11-.04-.03Z"/>
      <path class="cls-9" d="M2.03,8.62c.05,.19,.05,.21,.04,.39-.03,.33,.01,.57,.13,.7,.03,.03,.11,.08,.18,.12,.22,.11,.36,.21,.46,.3,.11,.11,.24,.3,.3,.44,.04,.1,.06,.13,.07,.11,.01-.03-.1-.28-.17-.39-.14-.21-.25-.32-.45-.43-.29-.17-.34-.2-.38-.28-.05-.1-.08-.33-.06-.54,.01-.14,0-.21-.02-.35-.04-.2-.08-.28-.11-.27-.02,0-.02,.04,.03,.21Z"/>
      <path class="cls-6" d="M2.02,10.9s-.07,.05-.08,.07c-.02,.03-.04,.03-.12,0-.07-.02-.12-.02-.17,0-.07,.03-.14,.11-.13,.15,0,.02,0,.02-.03,.02-.02,0-.07,0-.11,0-.06,0-.08,.02-.1,.07-.01,.03-.02,.07-.02,.09,0,.03,0,.04-.05,.05-.07,.02-.13,.09-.15,.19,0,.06-.02,.07-.05,.06-.1-.03-.2,.05-.22,.18-.03,.15,.1,.65,.2,.81,.01,.03,0,.03-.05,.03-.04,0-.15,.02-.25,.04-.17,.04-.2,.05-.27,.11-.17,.15-.22,.33-.13,.51l.03,.05-.09,.02c-.22,.04-.29,.29-.15,.52,.04,.07,.04,.08,.03,.13-.04,.14,.06,.35,.2,.41,.06,.02,.06,.03,.05,.08,0,.03,0,.11,0,.16,.02,.09,.03,.11,.09,.15,.04,.03,.08,.05,.1,.06,.02,0,.04,.03,.06,.08,.05,.14,.22,.24,.37,.21,.04,0,.06,0,.1,.04,.03,.03,.08,.05,.14,.07,.15,.03,.29-.03,.46-.22,.04-.04,.07-.07,.07-.07,0,0,0,.08-.03,.17-.02,.1-.04,.21-.04,.25,0,.05-.02,.08-.04,.08-.02,0-.07,.06-.11,.12-.04,.06-.09,.11-.1,.1-.02,0-.02,.01-.02,.04,0,.03,0,.07-.05,.12-.07,.09-.07,.12,0,.16l.05,.03-.04,.07s-.05,.09-.06,.1c-.03,.04-.02,.13,.03,.15,.07,.03,.14-.07,.08-.12-.02-.02,0-.06,.18-.29,.02-.03,.02-.02,.02,.04,0,.04-.02,.11-.06,.17-.03,.05-.08,.15-.12,.22-.03,.07-.07,.13-.08,.14-.04,0-.05,.1-.02,.13,.06,.05,.13,0,.11-.09,0-.03,.01-.08,.07-.18,.08-.12,.09-.13,.09-.08,0,.03,0,.07-.02,.1-.02,.03-.05,.13-.08,.24-.03,.12-.05,.19-.07,.2-.04,.02-.03,.08,0,.1,.07,.04,.15-.05,.11-.12-.01-.03-.02-.06,0-.09,.02-.04,.02-.03,.05,.12,.02,.09,.03,.17,.02,.18-.02,.02,.01,.15,.04,.16,.06,0,.08-.03,.06-.1-.03-.09-.06-.23-.07-.34,0-.08,0-.08,.01-.02,0,.03,.04,.11,.07,.17,.03,.06,.05,.12,.05,.13-.01,.03,.05,.08,.08,.07,.05-.01,.07-.08,.03-.12-.02-.02-.04-.03-.05-.03-.02,0-.03-.04-.06-.17l-.04-.17,.06,.07s.08,.1,.1,.12c.03,.04,.05,.05,.08,.04,.06-.01,.06-.05,.03-.11-.02-.03-.04-.04-.07-.04-.04,0-.05,0-.13-.14-.05-.08-.1-.16-.13-.18-.03-.02-.04-.04-.04-.05,0,0,.03,0,.06,.04,.03,.03,.09,.08,.14,.12,.05,.04,.11,.09,.12,.11,.03,.04,.12,.02,.14-.02,.02-.05-.06-.12-.11-.1-.03,.01-.06,0-.16-.12-.07-.07-.14-.13-.16-.14-.03,0-.03-.01-.04-.07,0-.04,0-.07,0-.07,0,0,.07,.05,.15,.12,.08,.07,.15,.13,.16,.12,0,0,.02,0,.02,.02,0,.04,.06,.06,.1,.04,.02-.01,.03-.03,.02-.07-.01-.06-.08-.08-.11-.03-.02,.02-.04,0-.14-.13-.06-.08-.14-.16-.16-.17-.03-.01-.04-.03-.04-.06,0-.02,0-.04,.02-.04s.08,.06,.16,.13c.14,.12,.22,.17,.18,.1-.01-.02,0-.02,.03,0,.05,.03,.08,.03,.1-.03,.02-.05-.07-.15-.12-.13-.02,0-.04,.03-.03,.06,0,.04-.02,.02-.1-.07-.06-.07-.13-.14-.16-.16-.05-.03-.06-.05-.05-.08,0-.04,.01-.04,.1,.05,.14,.14,.2,.19,.22,.18,.02-.01-.14-.24-.23-.32l-.06-.06,.02-.16c.03-.22,.12-.59,.13-.58,0,0,0,.04-.01,.09-.04,.14-.03,.34,.02,.43,.05,.1,.16,.19,.27,.21,.07,.01,.08,.03,.09,.07,.02,.09,.11,.18,.21,.21,.07,.02,.11,.02,.2,0,.08-.02,.12-.02,.17,0,.08,.03,.21,0,.27-.06,.04-.04,.06-.05,.11-.04,.13,0,.32-.11,.37-.24,0-.03,.04-.06,.07-.07,.06-.03,.15-.14,.17-.21,0-.03,.01-.08,.01-.12,0-.04,.01-.1,.03-.13,.04-.09,.05-.2,0-.33l-.03-.12,.06,.02c.09,.03,.2,.03,.2,0,0-.02-.03-.04-.09-.05-.05-.01-.12-.04-.15-.06s-.06-.03-.07-.03c-.01,0-.03,0-.03-.01,0-.03-.21-.29-.31-.4-.07-.07-.12-.15-.18-.28-.1-.2-.2-.51-.22-.63-.01-.08-.05-.13-.05-.06,0,.02,0,.05-.02,.06-.03,.02,0,.15,.07,.33,.04,.1,.05,.12,.05,.08v-.05s.01,.05,.01,.05c.01,.05,.12,.27,.16,.33,.01,.02,.01,.03,0,.02-.04-.01,0,.04,.13,.22,.26,.33,.39,.57,.41,.75,.01,.09,0,.12-.03,.18-.03,.05-.04,.09-.03,.12,.02,.07-.01,.18-.06,.23-.02,.02-.06,.04-.1,.05-.05,0-.06,.02-.09,.09-.05,.12-.15,.19-.29,.21-.09,0-.12,.02-.15,.06-.05,.06-.13,.08-.22,.05-.06-.02-.09-.02-.17,.01-.12,.04-.19,.03-.27-.04-.04-.03-.05-.06-.06-.14-.01-.09-.02-.1-.06-.09-.09,.03-.27-.07-.32-.18-.01-.03-.03-.1-.03-.15,0-.11,.04-.37,.07-.39,.03-.02,.02-.05,0-.04-.01,0,.02-.06,.07-.15,.05-.09,.09-.17,.09-.18,0-.04,.13-.38,.15-.38,.01,0,.09-.14,.17-.31,.08-.17,.19-.37,.24-.45,.05-.08,.08-.16,.08-.17,0-.04-.06,0-.13,.07l-.07,.07h-.16c-.09-.01-.22-.02-.29-.02-.24-.01-.43-.08-.68-.24-.36-.23-.47-.4-.57-.84-.04-.19-.05-.27-.04-.31,.02-.06,.02-.06,.12-.08l.1-.02v-.09c.03-.11,.08-.17,.15-.16,.06,.01,.08,0,.07-.09,0-.1,.02-.13,.13-.11,.1,.02,.14,0,.15-.07,.01-.08,.08-.11,.2-.08,.11,.03,.17,.02,.19-.01,0-.01,.05-.04,.09-.07,.12-.06,.22-.06,.31,0,.08,.06,.25,.31,.34,.48,.08,.15,.15,.47,.16,.65,0,.06,0,.23,0,.36,0,.31,.03,.51,.06,.5,.05,0,.06-.68,.03-1.02-.03-.24-.1-.49-.21-.67-.05-.08-.06-.12-.05-.12,.01,0,.02-.03,.02-.07,0-.05,0-.07,.05-.11,.03-.03,.06-.06,.06-.06,0-.02-.13,.01-.16,.04-.01,.02-.03,.05-.03,.07-.01,.04-.02,.03-.09-.06-.04-.05-.1-.11-.13-.12-.12-.07-.31-.06-.43,.02Zm-1,1.84c.06,.01,.11,.04,.17,.09,.21,.18,.54,.33,.79,.36,.04,0,.1,.02,.12,.02,.03,.01,.35,.03,.45,.03,.02,0,0,.05-.09,.17-.21,.28-.46,.78-.59,1.2-.06,.18-.08,.22-.16,.3-.27,.28-.45,.34-.57,.21-.03-.04-.06-.05-.15-.05-.16,0-.28-.08-.31-.21-.01-.06-.02-.07-.08-.08-.13-.02-.19-.15-.16-.32,.03-.12,.02-.14-.04-.12-.08,.02-.19-.08-.22-.19,0-.03,0-.09,.01-.13,.02-.08,.02-.09-.02-.15-.09-.13-.1-.27-.02-.37,.01-.02,.07-.04,.12-.05,.1-.02,.15-.07,.12-.12-.04-.08-.07-.16-.06-.22,.01-.1,.1-.22,.22-.29,.07-.04,.36-.08,.45-.07Zm1.51,.72c-.06,.12-.14,.27-.14,.26,0-.03,.03-.11,.08-.19,.06-.09,.09-.12,.06-.07Zm-.22,.38c-.07,.18-.21,.51-.27,.6l-.06,.11,.06-.16c.04-.09,.11-.26,.17-.38,.1-.21,.14-.28,.1-.16Zm-.65,1.83s-.02,.06-.03,.06c0,0-.05,.05-.1,.12-.04,.06-.08,.11-.08,.09,0-.01,0-.03-.01-.03,0-.01,.2-.29,.22-.3,0,0,0,.02,0,.06Z"/>
      <path class="cls-5" d="M3.16,10.81s.05,.07,.06,.04c.02-.02-.01-.07-.04-.07,0,0-.02,.01-.02,.02Z"/>
      <path class="cls-14" d="M3.22,11s-.02,.07,0,.06c.02,0,.04-.06,.02-.07,0,0-.02,0-.03,0Z"/>
      <path class="cls-15" d="M3.3,11.23s.02,.03,.03,.03c.01,0,.01-.02,.01-.04,0-.02-.02-.03-.03-.03,0,0-.01,.02-.01,.04Z"/>
      <path class="cls-3" d="M3.03,12.78s0,.04,0,.05c.01,.01,.04-.05,.03-.08,0-.04-.04-.02-.04,.03Z"/>
      <path class="cls-2" d="M9.98,12.61s.03,.02,.06,.02c.06,.01,.11-.02,.07-.05-.02-.02-.14,0-.14,.02Z"/>
    </g>
  </g>
</svg>